<svg xmlns="http://www.w3.org/2000/svg" viewBox="0 0 3564.4 2901.7"><defs><style>.a{fill:none;stroke:#231f20;stroke-linecap:round;stroke-linejoin:round;stroke-width:6px;}</style></defs><path class="a" d="M42.6 1797.6c8-31.4 23.4-68.5 56-77.6 73.3-20.5 178.3 29 232.6 197.6 23.2 72 53.6 280-38.8 302-39.3 9.2-78.4-5.8-108.4-29m2695 118l-8 202.8c-.6 14.6 1.4 29.5-5.5 42.6-16.7 31.4-49.4 50.8-83 59-53.6 12.7-124.6 7-169.2-28-13.8-11-29.3-28-31-46.4-3-30.6 1-63.7 1.7-94.4l2.2-116.2c0-6-2.4-20.2 5.7-21.2 2-.3 8 3.8 10 5m549-310.2s-57 251.5-79 266.2c-44 29-146 93.3-150 90M2680 750.4c27-8 66-28.7 92.3-10.2 13.6 9.5 217.4 210.8 232.8 242.6 15 30 26 61.2 37 92.5 9 24.3 17 48.7 25 73.2 7 20.6-6 36.6-25 44M2243 912c12.3-11.4 24.6-23.8 39-32.2 12.2-7 26.2-10.2 39.7-14 32.4-9.4 64.8-19.2 97-29 27-8 66-28.6 92.3-10 13.6 9.4 25.8 22.3 38.3 33.2 46 40.5 92 81.3 134.6 125.4 24 25.3 44 52 59 84 14 29.8 26 61 37 92.4l24 73.2c6 20.6-6 36.6-25 44m-228 63.3c-8-30-18-59.3-28-88.3m241-519.7c12-11.3 24-23.7 39-32 12-7.2 26-10.3 39-14.2 32-9 65-19 97-28 27-8 66-28 92-10 13 10 25 23 38 34 46 41 92 82 134 126 24 26 44 52 59 84 15 30 26 61 37 93m-225-373c20-7 41-12 62-18l79-24c23-7 52-21 75-5m-654-330c-32 2-135 37-138 36s-202-129-295-106c48-34 100-63 161-56 32 4 254 93 272 127zm-648-35c57-18 128-15 184 6 58 22 102 68 135 120-26 8-130 39-138 34-5-3-80-71-120-89-50-22-104-25-158-14 29-23 60-43 95-54zm319 125c-41-65-99-117-176-131m-96 209c-11 3-59 21-67 19s-37-43-44.6-50c-24-23.3-50.4-45-80-61m-168 37c64 18 117 63 161 112-42 12-203.5 62-210 61s-8.5-11-12-17c-33-59-93-101.5-157-120.6"/><path class="a" d="M1971 421.8l-72.8 21-34.7 9.8c-5.7 1.6-13 4.7-18.8 5.4-9.5 1-8.3-.5-15.2-7.8-27.6-29-58.2-56.2-93-76.4-49-28.5-102.6-37.4-158.5-32 53.6-53.6 128.5-70 201.4-55.6m211-86c-25.3 8-48.6 20.6-70.2 35.7-8 5-16.6 14-25.3 18m-738 491c28-32 141-129 181-141 45-14 91-27 137-41-52-142-260-126-260-126 55-68 165-80 244-56m394-329l-126 32-305 74-369 89-318 78-106 25-33 8c-5 1-14 1-18 4a7.5 7.5 0 0 1-2 0l47 4m0 0L1824 76M341.6 617c22.8-9.6 35.8-10.5 72.3.6q38 11.3 77 24c-30 10.3-67 24-81 54-13 27-13 60-16 89-20-9-39-17.8-59-26.4M723 2569c37.4 48.5 92 100 156.2 105-76 83.4-189.5-12.8-238.4-77-73-95.6-126-238-94.8-358.8 15.2-58.7 59.7-105.8 125-93.4-52.3 45.8-54.2 130.3-45.3 193.7 11.6 82.8 46 164.4 97.2 230.5 47 62-24-30.4 0 0z"/><path class="a" d="M905.3 2348.7c27.6 64.5 45.2 134.6 45.3 205 0 51.7-9.3 109-43 150.3M508 2317.6c-5-88.7 24-221.6 137.8-216.3 53.3 2.5 101.8 34.8 139.6 70.2"/><path class="a" d="M995.5 2761.5c-21.3 14.7-46.6 26.8-72.2 31.6 162.7-118 54.2-544 50.2-568 10.3 25 24 49 41.2 70a201.7 201.7 0 0 0 22 23m134.3 8c10.3 46 11.4 277-25.4 332m-49.4-366c-51.6 14-85.6-39-100.2-72s-29.7-110 18.6-128c45.3-16 85.5 42 99.8 76 0 0 33.4 111-18.2 125z"/><path class="a" d="M1150.5 2147c13.3 32 22 78.2.8 109-10.8 15.7-26.3 20-42.6 28.6M339 1221.4c-33 34.5-79 8-104.5-21.4-38.7-44.3-59.4-108.5-56.8-167"/><path class="a" d="M329 1339.4c22.6 94.6 177 726 178 741.6.6 9.6-5.2 13.6-10.5 23-18.2 32-27.8 68.4-32.5 104.8l-243-1026m541.4 675.8c-46.7 45.8-110.7 13.5-147.7-27.4-52.4-58-80-143-75-220.6 3.8-55.8 32.8-129.4 100.6-123.4 76.8 6.7 126.7 96 146.8 161"/><path class="a" d="M583.3 1918.7c-98-75.8-128-226.6-120-349.8 5.5-89 51-209 158.5-198 347 35 337 837-38.4 547zM1717 2194.3c1.5 7.2 3 18.5-4.3 23.2-11.3 7.3-24.6-9.7-34.6-13-5-2-13 0-18-2s-13-10.3-18-14.3c-16-13-39-26.5-49-44.5-8-14-27-93.6-27-104.8s-3-29 0-39c3-9 12-45 16-51 14-18 42 26 48 36 42 62 75 134 89 208 2 7 0-2 0 0zm-38.4 204c-24.3 30.2-71.6 58.5-110.8 40-13.2-6-22.5-18-26.5-31.8s1.4-28.2-5-40.4c-4.3-8-5.2-5-3.8-17 2.5-20 5.7-44 17.7-61 13-19 30-23 50.8-13 10.3 5 19.5 12 30 17 13.7 7 27.4 5 41.4 9 22.5 6 27.4 72 6.2 99zm-19.4-174.6c.2-.7 0-5 0-5l21.7 1.6-2 58"/><path class="a" d="M1599.5 1950c-41.2-41.7-121.6-112.8-181-121m-24 641.3c-112-101-180.4-259.5-183.5-409.5-2.2-110.2 44.3-256.6 177.7-255 63.7 1 123 36 169.2 77.3"/><path class="a" d="M1416.7 2170.4c-1.8-6.7-1.7-6.3-7.3-11-13.5-11.3-51.6-40.8-53.7-44.8l-13.4-23c-15.3 3-2.3 62-.4 70.4 7 31.2 63 143.8 80 168.8 6 9.5 23 38.3 39 34.5-26 15.5-52-29.7-63-46.2a585.8 585.8 0 0 1-51-98m115 118c-5-6-8-6-9-14-1-3 2-81 1-85m32-286c-5 9-9 65-13 78-5 15-25 30-41 30-10 0-53-31-55-34-6-9-15-15-22-23-34-39 10-82 40-107 20-16 41-27 68-22 20 4 39 18 40 40m-31 310c-18 6-33-17-39-30s-11-42 7-49 34 17 40 30"/><path class="a" d="M1471.6 2106.7c-8.5 3.5-10.8 5-18.8 6.5 5-23.4 15.3-35.3 40.3-29.2s45 31 56 53.8c13 25.3 20 58.4 9 85.4s-40 32-64 16c8-4.2 18 3.2 27-.6 7-2.8 12-8.6 15-15.2 9-17.7 6-40.2 0-58.3m-11-190c-12-8-24-15-37-22 5-2 10-12 13-13 5-1 19 8 24 11"/><path class="a" d="M1485.4 2242.7c-29 14.5-55.8-28.4-63.5-50.2-7-20-13-62.5 15-69.7 26-6.8 48 26.5 56 46.4m-273-1076.4c0 11.4-13 18.4-23 17s-20-8.8-31-6.8c11-3.3 35-10.3 34-25.8 7 2.7 18 7 18 15.7zm0 47c-2 6.5-10 18-18 18-1-11-3-45.3-2-47.3"/><path class="a" d="M1203.6 1158s-22-9-31-3.4l-3-52c5.5-.2 32.6 7.7 32.6 7.7z"/><path class="a" d="M1149 1175c-.3-13.3-3.2-29.2-1-42.4 1.4-9 11-29 21.8-30 .6 11.4 4 46 2.7 50.4s-21.2 21.5-23.4 22z"/><path class="a" d="M1059.2 1110c35.5 4 73.5 3 108-7-15 5-10.3 24.7-28 25.8-15.4 1-39 5.7-53.7.2 0 12-1.5 44.7 1.2 47s49 3.2 62.4-1m-91-65l1 55.3c-9-1-31 .8-33 1"/><path class="a" d="M1085 1175.8c-10-2-16.3-10-27.4-10.5l-.3-55.2"/><path class="a" d="M983.2 1100.6c-.3-4.4 8.7-9.8 6-14.4 14.3 18.4 49 21.6 70 24-12.5-1.3-23 8.2-34.7 10.4m-38.2-50.6c0 5.4-.8 11.2 2.6 16-4-3.7-15-.8-17-5s10-13.2 14-13.4z"/><path class="a" d="M973.7 1132.5c-9.3-6.4-2.2-41.8-1.8-52.3 0 4.5 14 2.5 17 6"/><path class="a" d="M1024.5 1120.6l-.2 45.6c-10.3-.2-40-8.7-43.4-19s1-31.5 2-43.8c0 5.6 35 18.3 41 17.2zM906 1137.3c-15 10.2-18.3 23-18.3 40.5M973.5 2225c-16.8-42.5-28-96.5-17-141.8 10.4-41.5 43.5-71.7 88-56.2m167 151c-28-50.6-58.2-103.7-100-144.5-26.3-25.5-60.5-45.8-98-35 28.5-11.4 58.7-25 90.2-23.4 38.4 2 69.2 28 93.2 56m54 262c-42 17-83 34-125 50m774-778c15 50 18 110-10 156m-130 22c21 5 50-3 69-12 17-7 31-21 39-38 22-42 16-95-2-138-16-36-46-76-87-85-21-5-39 2-57 11-16 7-32 15-43 28 15-51 61-87 115-67"/><path class="a" d="M1705.3 1488.8c29-16 59-30 91.4-16 35.3 15.4 60.2 50.5 74 85.3 15.5 40 20.3 86 3.7 126s-47.7 51-86.4 58c65.5-16 59-113 42-161-16-45-66.6-118-124.7-91 1.2 0 2.2-1 0 0zm290 1196.5c6.3 3.7 4.6 25 4.8 31 1 17.5 1 35.2 0 52.8 0 20 6 45-20 44-31 0-65-11-95-19-35-9-71-18-106-28l-66-18c49-17 101-27 151-39 29-6 58-13 87-18 11-2 36-10 47-4z"/><path class="a" d="M1998.7 2798.4c-1.5 26.8-44 11.8-60.2 8.3-28.4-6.2-56.6-13.7-84.7-21q-71.5-18.6-142.7-38.3c56-19 114-30.7 171-43.6 29-6.5 58-13 88-17.4 6-.8 18-4.4 24-1.7s6 11.4 7 18c3 31.6 1 64 0 95.8zM381.7 1370c-29 9-53-26.8-62.6-49s-21-104 29-88.8c-22 16.8-15 55.2-7 77s24 49.8 49 57.2c-1 1-4 3.2-6 3.6zm13-83.8c5.2 13.7 8.4 28.5 8 43.2m-41-111.8c24.7-6.2 49.7-11.8 74-18.7M1830 1413c13.4-3.3 27.3-8 41.2-5 30 6.3 58 28.3 78 50.8 63 71.3 51.4 163.4 33.2 249-36.3 170.4-172 695-191.5 727.5-29 47.2-73 67.2-121 87.8 14-11 27-20 39-36 37-52 171-629 188-699 15-67 37-135 21-204"/><path class="a" d="M1388.7 1790.5c44.3-52 140.3-36 203.7-1 88.3 49 150 133.6 192.4 223.3 10 21 19.2 42.5 26.5 64.6-2.3 9.7-4.8 19.5-7.3 29.2M444 1421l-16-65.7 18.7-4.6 25 95.4m-143-215s16.6-17 18.4-20c7-10 11-21 14-33 7-29 5-60-1-90l34 122m19-5c-1 0-3 2-4 1M241 932c12.4-3.7 72.5-22.8 91.2-19.3 16.8 3 31.7 12.7 44 24.3s92.2 212.5 100.6 244.8c-4.7 1-9.6 2-14.3 4m53 147l12 47.2m-78.2-18.4c-3-11-3-9.3 6.5-12.7m266.6-158c-39.6-24-66-66-82.3-108-33-86-39-216 32-285 41-40 97-34 138 3-37 9-96 97-103 107-4 6-10 11-15 17-12 18-7 35 5 50 6 7 13 13 17 22 5 10 23 79 35 100"/><path class="a" d="M857.6 1151.7c-56.8-43.4-83-120.7-86.8-189.8 41 13 81.3 28 121.7 43 1.7 58-7.3 103-35 146z"/><path class="a" d="M770.8 962c-17.7-5.7-2.7-56.2 4-55.2s109.3 28.7 111 39.7c2 14 6.3 44.6 6.7 58.8-40.5-14.7-80.7-30.4-121.7-43.5z"/><path class="a" d="M772.8 905.6c5-36.4 17-73.4 40.2-102.3 41.2 38.7 64 95 74 149.8m-6 1002c27-13 90.8-47 96-55 42.3-63 48.7-147 35.3-220 0 0-42.4 11-60.4 16-15 4-43 7-56-1-12-7-9-22-9-34 0-48-1-368 0-478 0-7-2-19 6-23s210 79 222 93c8 11 6 25 6 38m-562 92s109-49 164-55c29-3 72 0 97 17 8 6 3 2 5 10"/><path class="a" d="M1692.7 1482.5c-6.2 11.8-8.5 27-18.7 36-3.3 2.8-792.8 435.7-792.8 435.7m715.2-414.6l35.6-20m-437.7 241l213-121m25.7-13.6l137.5-73m-546.8 303.2l134.8-75M831 749c34.3 10.8 63.3 34.7 84.5 63.3 36 48.4 52.4 111 57.3 170.4m916 773l-11 46m-6.2 25.6l-6 24.5m-5.6 23l-40.2 169.7M2031 1730c9 11 12 17 .8 26-9.2 7.6-18.8 15-29.5 20.3-8.2 4-19.5 8.5-28 2.6-12.3-9 0-36 2.8-48 15 24 37 16 54-2zm29.8-228.8c7.4 21.4 10.2 41.4-18.5 35-15.6-3.7-23.2-12.4-27-27.6-2.7-10.6-2.5-61.3 14.7-61.8 12.6-.4 27.5 45 30.8 54.4zm-10.2 188.6c-10.2-2-23.8-24-30-31.3-7.6-9-12-91.4-12-91.4l17-1s-6 44 6 62c7.7 12 20.4 19 30 29-.3 8 2.6 36-11 34z"/><path class="a" d="M2024.8 1572c2.5-6.5-.3-4.8 7-6.5 14.2-3.3 29.2 7.6 30 19.4m188.8 146c28.8-48 28.8-114 24.3-168-8-86-35-174-91-241"/><path class="a" d="M1381 2898.7c-35 0-314-140-320-137s-52.2 36.5-71.2 46.2c-16.8 8-115.4 61-200.3 42-332-76-409.4-612-409.4-627-9 2-52 21-66 27-130 52-232-99-270-207-46-129-37-254-33-264 6-16-6-33-6-49s15-20 26-26c29-16 242-81 245-84-3-1-106-451-110-465-7-31-19-59-22-91-5-57 9-121 58-156 13-10 91-36 116-37-1-18 3-79 1-83s-175-5-190-7c-42-6-25-209 4-260 15-25 113-109 143-127C346 353 1822 5 1835 3c15.8-2.2 161 13 191.5 24s113 115.5 114.6 116.8c6 3.8 96-44.7 124-56.5s62-18.5 95-16.7c15 .8 349 139.5 349 139.5l57 61 61-11s452 195 472 209c53 34 226 270 236 299 11 33 31 176 28 212-2 25-11 44-33 54-16 8-178 67-180 75s-198 1131-215 1156c-19 27-191 128-194 134-2 5-10 91-20 99-7 6-8 46-12 62-18.3 59-85.4 91-142 97-63.2 7-140-4-186.3-52-6.2 11-44.3 33-45.5 48-2 20-2 32-18 45-5 4-488 156-504.7 160-24 6-220.5-40-293-63-13-3-309.6 108-335 108zm-1082.5-1178L187.7 1678m131.3-11.5l39.8 165m-97.8-413l24 99m79 338.7l5.5 23m8 27.4l25.7 112.6m779.5-949.4c0 23.7-175 24-175.3 0m822.6-30.3l452-159.7m-937.7-209L1638.6 996M462.4 402.8L577 436.6M736.3 405l860-226.7M1490.6 650l1185-357.8m-1164 380l854.8-252.5m48.4-17.3l62-18.3m-703 455l1185-357M1795 861l854.6-252.5m37-11l285.6-84.4M1547 758l1022-308.6m-1000.8 331L2302 564m54-16l304.4-90m-2272 908.3l175.5-48.7"/><ellipse class="a" cx="1091.3" cy="1380.8" rx="53.7" ry="93.4" transform="rotate(-16.5 -358.167 4055.945)"/><path class="a" d="M728.3 698.3l270.4-84.8c-4.3-17.2-4.6-36.4 0-53.5 10-36.4 48-51 76.4-71.3m310 560.3L999 613.4M2031 1730l-45-40"/></svg>