<script>
	document.addEventListener('DOMContentLoaded', function() {
        var svg = new Walkway({
          selector: '#engine',
          duration: 4000
        }).draw();
      });
</script>

<svg id="engine" xmlns="http://www.w3.org/2000/svg" viewBox="0 0 3591.34 2903.33"><defs><style>.a{fill:none;stroke:#00aeef;stroke-linecap:round;stroke-linejoin:round;stroke-width:6px;}</style></defs><path d="M1010.12 2383.72c-29.73-94.2-79.57-184.53-148.09-256.1-50.27-52.47-117.8-102.55-193.3-105.47 47.88-26.77 114.91-21.92 163.88.08 29.82 13.4 55.87 34.13 79.74 56.17 18.2 16.8 35.33 34.75 51.91 53.14 9.09 10.08 10.62 12.24 11.59 25.45s2.33 26.14 3.93 39.17c7.73 62.89 20.45 125 30.36 187.6-5.95-18.83-13.17-83.13-.02-.04zm-652.34-464.57c27.14 70.67 44.18 156.19 21 230.4-9.51 30.49-28.29 60.54-59.85 71.47-38.14 13.2-78.38-5.69-108.36-28.85 27.46 7.12 53.94-3.25 79.63-12.48 18.85-6.78 33.24-17.18 43.88-34.42 25.41-41.17 24.49-96.38 17.29-142.44-9.08-58.06-31.82-115.43-64.12-164.51-22.58-34.29-54.25-71.39-95.84-81.88-20.77-5.24-39-.41-58.48 7.11-22.45 8.65-47.92 16.61-63.84 35.67 8.14-31.4 25.09-63.73 56-77.63 17.94-8.06 36.94-7.89 55.83-3.86 19.26 4.11 34.28 15.65 50.48 26.66 60.69 41.23 100.33 107.11 126.32 174.77z" class="a"/><path d="M273.9 1905.41c-20.49-41-48.59-80.86-86.3-107.77-28.5-20.33-56-27.3-89.73-19.54 31.22-13.67 63.81-31.1 98.41-20.28 36.15 11.31 64.24 42.1 85.35 72.17 53.8 76.64 92.59 188.72 66.47 282.18-5.11 18.27-13.44 36.5-27.24 49.88-17 16.44-42 22-64 28.38 41.93-16.27 55.18-67.41 57.52-107.76 3.53-60.88-13.43-123.09-40.44-177.26-46.51-92.96 5.64 11.39-.04 0zm2631.53 404.87l-7.88 202.87c-.57 14.57 1.44 29.48-5.52 42.59-16.65 31.38-49.41 50.82-83.12 58.89-53.48 12.8-124.54 7-169.14-28-13.84-10.86-29.26-27.91-31.06-46.32-3-30.65 1.21-63.68 1.8-94.43l2.21-116.25c.11-5.93-2.44-20.22 5.74-21.16 2.6-.3 8.06 3.82 10.55 4.95q11.77 5.34 23.81 10.07m355.44-208.16c-16.11 15.75-36.11-4.86-20.09-20.53s36.37 4.62 20.09 20.53zm41.95 128.25c-14-2.67-19.59-28.7-25.19-40.6-1.91-4.05-9.72-15.06-8.95-19 1.33-6.85 27.33-16 35.35-21.1l19.31 42.58c2 4.51 7.06 11.52 7.5 16.53 1.31 15.07-15.32 24-28 21.6-4.19-.8 4.42.82-.02-.01z" class="a"/><path d="M3076.43 2229.29c3.43 7.51 9.56 20.28 6.56 28.58-7.68 21.29-28.27-6.45-32.77-14.29 12.21 2.28 21.85-2.72 26.21-14.29z" class="a"/><path d="M2946.01 2283.43c-.09-9.23-3-23.24-.46-32.18 2.1-7.39 14.87-17.83 24-18.86 6.81-.77 11.79 3.79 18.49 5.34 24.25 5.6 37.32-12.05 36.81-35 4.93 10.46 9.3 21.44 14.86 31.57 3.48 6.34 3.46 4.5 7.91 8.64 6.64 6.18 13 21.62 24.35 22.25 20.16 1.13 7-23.76 5.73-32.84-1.39-10-1.14-13.93-5.82-24.24-5.73-12.63-13.76-25.76-17.71-39-2.26-7.62-3.15-2.83 1.26-9 6.24-8.8 12.58-13.66 14.47-25.13 3.33-20.15-10.39-40.28-21.27-56.29-6.2-9.12-22.77-14.86-26.48-24.27-1.53-3.89.3-12.56.39-16.65l.94-39.65 105.53 28.03c15.41 4.12 17.79 1.39 32.86-6.23" class="a"/><path d="M3205.9 2018.04c.87 23.44-.86 43.6-14.48 63.1-16 22.93-32.54 45.61-43.85 71.39-8.6 19.59-7.48 36.64-8.17 57.37-.92 27.89-18 44.83-40.3 59.51-43.85 28.86-86.45 63.06-133.66 86.31-4.32 2.13-11.59 6.94-16.26 3.72m75.7-156.74c.53 23.84-14.09 41.69-38.88 34.51-8.48-2.46-11.36-6.7-20.47-3.16-15.86 6.16-30.55 20.29-45.38 28.82l.44-19c.23-9.83-1.83-13.23 5.85-18.39 13.06-8.79 29.94-14.36 44.13-21.25q22.4-10.89 44.67-22zm-122.97-56.17c16-17 14.28-31.1 16.7-52.78 3-26.54 17.84-49.65 37.17-67.33 4.47-4.09 15.85-16.69 20.54-15.43s13.45 13.74 16.59 16.83c9.48 9.31 19.19 18.4 29.27 27.06 9.42 8.1 23 15.28 28.3 27.06 9.65 21.93-2-4.58 0 0 16.13 36.65-40.09 62.59-65 75-37.77 18.85-75.86 37.1-114.37 54.4-43.94 19.74-89.66 43.53-138.89 43.71-36.7.14-70.48-12.15-102.61-28.85" class="a"/><path d="M2920.94 2228.08c-29.4 14-58.63 29.66-88.87 41.8-24.23 9.73-51.85 12.94-77.73 14.13-27.08 1.24-57.19.37-82-11.93-25.18-12.5-49.71-31.49-69.08-51.89 36 8 67.15 28.17 104.23 33.24 53.36 7.31 100.7-14.29 148.34-35.27 42.6-18.76 84.65-38.8 126.32-59.54 25.42-12.65 85-38.85 68.3-76.67 11.89 21.43 28.93 41.5 14.74 66.59-11 19.38-40.27 28.8-59 38.16-28.27 14.09-56.73 27.77-85.24 41.37-38.02 18.13 32.76-15.63-.01.01zm-332.3 137.68c.6-7.9-.83-20 2.1-27.5 3.42-8.76 16-18.2 22.29-25.35l-2.2 116c-.34 18 2.84 40.34-1.1 58-1.39 6.22 1.07 2.73-4 6.88-7.14 5.88-19 9.14-27.37 13.19m262.07-1249.61c-7.49-29.89-17.26-59.28-27.62-88.27-17.9-50.08-37.39-100.19-71.5-141.69-44.87-54.6-98.34-102-151-148.77q-29.25-26-58.82-51.6c12.16-11.32 24.49-23.67 38.95-32.1 12.22-7.13 26.2-10.22 39.67-14.1 32.43-9.35 64.76-19.08 97.08-28.81 26.94-8.11 65.77-28.67 92.19-10.24 13.62 9.5 25.82 22.35 38.27 33.29 46.06 40.46 92 81.28 134.61 125.43 24.43 25.33 44.56 52.12 59.95 83.91 14.46 29.88 26 61.19 37 92.45 8.58 24.27 16.72 48.69 24.7 73.16 6.72 20.61-6.08 36.65-25.21 43.9" class="a"/><path d="M2328.43 965.15q-29.25-26-58.82-51.6c12.16-11.32 24.49-23.67 38.95-32.1 12.22-7.13 26.2-10.22 39.67-14.1 32.43-9.35 64.76-19.08 97.08-28.81 26.94-8.11 65.77-28.67 92.19-10.24 13.62 9.5 25.82 22.35 38.27 33.29 46.06 40.46 92 81.28 134.61 125.43 24.43 25.33 44.56 52.12 59.95 83.91 14.46 29.88 26 61.19 37 92.45 8.58 24.27 16.72 48.69 24.7 73.16 6.72 20.61-6.08 36.65-25.21 43.9m-228.21 63.46c-7.49-29.89-17.26-59.28-27.62-88.27m240.67-519.67c12.16-11.32 24.49-23.67 38.95-32.1 12.22-7.13 26.2-10.22 39.67-14.1 32.43-9.35 64.76-19.08 97.08-28.81 26.94-8.11 65.77-28.67 92.19-10.24 13.62 9.5 25.82 22.35 38.27 33.29 46.06 40.46 92 81.28 134.61 125.43 24.43 25.33 44.56 52.12 59.95 83.91 14.46 29.88 26 61.19 37 92.45 8.58 24.27 16.72 48.69 24.7 73.16 6.72 20.61-6.08 36.65-25.21 43.9" class="a"/><path d="M3052.66 651.57c15.41-14.35 31-30.09 51-37.85 19.8-7.69 41.24-12.31 61.62-18.35q39.82-11.79 79.57-23.81c23.54-7.16 52.27-20.8 75.37-5.51m-736.37-391.41c33.61 14 64.22 28.43 81.82 62.12-32.18 1.1-66.54 15.12-97.19 23.83l-22.25 6.33c-3 .85-15.46 6.65-18.57 5.28-2.06-.91-4.8-6.55-6.3-8.41a265.61 265.61 0 0 0-28.6-29.64c-70.22-63.49-167.32-91.11-260.1-68 47.94-33.81 100.09-62.75 160.85-56 32.39 3.61 63.59 16.51 94.06 27.45 32.36 11.63 64.53 23.82 96.28 37 38.58 16.07-44.3-18.38 0 .04zm-566.94 27.34c57.18-18 128-15.63 184.23 5.43 58.18 21.79 102.34 67.61 134.71 119.45l-77 22-43.42 12.35c-10 2.85-9.27 4.38-17.2-1.15-5-3.46-9.13-9.23-13.54-13.5-31.31-30.23-66.35-57.74-106.18-75.83-49.75-22.6-104-25-157.12-14.36 29.11-22.75 60-43.29 95.56-54.4 18.88-5.95-38.74 12.09-.04.01zm318.94 124.88c-40.55-64.93-98.88-116.8-175.86-130.67m-96.02 208.27l-33.13 9.47c-7.33 2.1-26 11.32-33.24 9.51-6.06-1.52-17.76-21.67-22.53-27.07q-10.64-12-22-23.41c-23.86-23.78-50.48-45.17-80.27-61.07-40-21.36-83.38-29.61-128.44-28.83m-40.44 66.96c64.23 17.81 117.07 63.07 161.11 111.38q-62.54 17.91-125.06 35.88l-56.46 16.24c-6.8 2-21.76 9.16-28.72 8.27-5.64-.72-8.08-11-11.41-17.06-32.14-58.66-93-101.34-156.19-120.44" class="a"/><path d="M1997.6 423.44l-72.88 20.85-34.65 9.93c-5.7 1.63-12.91 4.71-18.8 5.39-9.46 1.09-8.28-.53-15.18-7.82-27.61-29.12-58.16-56.2-93-76.43-49-28.49-102.57-37.44-158.55-32 53.57-53.57 128.53-70 201.43-55.6m-302.7 277.83a424.56 424.56 0 0 0-76.21-77.9c-53.71-42.23-116.41-54.63-183.87-47.34 55.6-67.3 165.52-79.8 244-56.05m529.72-182.32c-25.26 7.89-48.57 20.52-70.25 35.56-8.11 5.63-16.58 14.6-25.34 18.86" class="a"/><path d="M1348.93 446.36c62.54 15 116.71 69.21 154.34 119.23-45.84 13.33-91.84 26.56-137.53 40.48-40.73 12.43-72.28 34.72-101.09 66.32m-239.38-57.24c-4.29-17.24-4.62-36.36.11-53.5 10-36.41 47.9-51 76.27-71.28m779.68-435.22l-126.9 30.74-304.76 73.91-368.86 89.46-319.17 77.41-105.71 25.64-32.69 7.93c-4.59 1.11-13.49 1.47-17.42 4.22a7.48 7.48 0 0 1-2.15.52l46.54 3.67m.01.01L1850.55 78.1M368.15 618.8c22.83-9.52 49.25-6.3 72.3.66q38.62 11.66 77 24.25c-29.41 10.51-66.8 24.11-80.91 54.13-12.6 26.8-12.54 60.11-15.39 89.12-19.55-9-39.24-17.76-59-26.42m387.4 1810.2c37.37 48.44 92 99.82 156.25 104.94-76.07 83.35-189.45-12.8-238.4-76.9-73.11-95.74-126.11-238.11-94.76-358.89 15.25-58.74 59.74-105.82 125.13-93.41-52.36 45.78-54.3 130.29-45.45 193.74 11.55 82.82 46 164.39 97.23 230.52 47.81 61.96-23.61-30.5 0 0z" class="a"/><path d="M770.48 2338.34c-3.34 45.26 15.71 93.87 45.08 127.89 18.8 21.78 53.91 48.38 83.17 29.1 38-25 25.27-91.11 11-125.41 22.5 55.16 36.93 114.91 36.55 174.72-.23-3.41-14.66 5.46-15.54 6.07a79.22 79.22 0 0 0-25.45 29.79c-7.9 16.18-9.12 34.81-5.74 52.34 1.09 5.66 10.59 37.87 20.69 23.21-4.61 7.72-9.78 18.29-18.51 19.22-6.85.73-16.22-2.8-22.7-4.71a185.39 185.39 0 0 1-44.23-20.22c-33.29-20.44-61.5-48.82-85.25-79.61 37.27 36.12 35.08-45.79 29.32-65.92-9.47-33.09-27.17-62.77-38.31-95.15-7.24-21-9.32-42.91-11.35-64.93-2.15-23.22-10.81-42.93-21.77-63.32-7.06-13.14-16.23-41.57-31.74-47.19-17.84-6.46-24.72 19.33-26.42 31.78 2.54-37.62 12-77.7 36.61-107.31 6.24-7.5 9.14-12.15 18.74-10.73 6.39.95 13.12 3.76 19.09 6.08a205.75 205.75 0 0 1 40.42 21.55c65.14 44 111.57 114.51 142 185.72.47 1.08-50.43-117.87 0 0l1.35 3.26" class="a"/><path d="M897.91 2609.97c.85-22.21 12.1-43 29.44-56.71 2.68-2.12 11.81-10 16-9.1 6.86 1.5 2.31 20.59 1.75 26.88-2.28 25.48-6.86 62.27-23.68 83-17.21 21.22-23.83-34.83-23.47-44.09 1.8-48.06-1.29 32.68-.04.02z" class="a"/><path d="M931.81 2350.37c27.56 64.46 45.24 134.64 45.27 205 0 51.71-9.28 109.08-43 150.27m-236.78-28.87c-95.16-90.28-155.51-227.08-162.85-357.5-5-88.73 24.24-221.61 137.88-216.3 53.31 2.49 101.83 34.83 139.59 70.22" class="a"/><path d="M1096.43 2650.63c-11.68 46.6-34.89 84.28-74.37 112.56-36.52 25.11.19-.14 0 0-21.32 14.66-46.64 26.78-72.19 31.64 82.05-55 93.33-171.9 89.77-261.67-3.11-78.36-16.4-156.85-28.19-234.26-3.67-24.08-7.38-48.16-11.41-72.19 10.33 25 24 48.84 41.23 69.72a201.7 201.7 0 0 0 22.14 23c7.56 6.65 20.63 11.7 26.83 19 5.27 6.19 4.61 23.13 5.73 31.73 1.93 14.69 3.79 29.39 5.43 44.12" class="a"/><path d="M1162.24 2513.04c.2-39.83-1.1-79.84-6-119.4-1.31-10.61-2.87-21.21-5-31.69-.58-2.89-4.12-11.15-3.19-13.88 1.06-3.13 10.48-5.55 14.36-7.11l35-14.06a713.83 713.83 0 0 1 16.71 141.25c1.28 64.24-5.22 135.68-42 190.46a150.5 150.5 0 0 1-90.51 62.93c44.72-35.84 6.54-1.57 0 0 25.07-20.09 46.08-44.36 59.32-73.84m-.05-479.98c14.28 34.44 27.34 106.1-18.18 125-44.56 18.55-85.63-39.21-100.21-72.88-15-34.74-29.71-110.49 18.63-128.18 45.3-16.58 85.5 41.65 99.76 76z" class="a"/><path d="M1097.02 2070.59c38.5 4.58 66.44 45.43 80 78.1 23 55.36-23-55.36 0 0 13.28 32 22.06 78.21.78 109.08-10.78 15.64-32.52 23.09-48.83 31.69M284.13 968.45c47.59 3.38 78 62.36 90.2 101.73 20.66 66.92-20.69-66.92 0 0 11.93 38.63 19 96.74-11.34 129.49-26.93 29.12-65 8.8-86.82-15.52" class="a"/><path d="M379.93 1066.07c14.44 46.68 23.19 117.82-14.35 157-33.06 34.49-79 8-104.58-21.42-38.67-44.34-59.45-108.53-56.82-167 1.75-39.08 19.56-95.85 68.74-91.12 56.57 5.44 92.43 75.35 107 122.58 24.95 80.59-24.89-80.7.01-.04z" class="a"/><path d="M355.43 1341.09l68.33 284.22 98.33 409c3.68 15.32 10.65 32.69 11.65 48.47.6 9.5-5.17 13.5-10.46 22.84-18.16 32.1-27.83 68.54-32.51 104.94l-82.34-347.41-130.92-552.88-29.78-125.74c12.23 17.75 27.52 34.52 46.47 45.22 8 4.5 16.6 8 25.71 9.32 6.21.88 13-1.42 16 2.58 6.62 9-.59 27.83-.42 37a113.86 113.86 0 0 0 6 33.18 127.63 127.63 0 0 0 7.54 18.09c1.31 2.59 6.4 8.56 6.4 11.17zm433.51 519.13c-46.73 45.8-110.67 13.46-147.66-27.43-52.39-57.93-80-143-74.88-220.59 3.7-55.81 32.69-129.38 100.49-123.42 76.76 6.75 126.74 96 146.79 160.93" class="a"/><path d="M882.04 1628.57c31.37 101.5 44.41 250.51-38.42 333.12-73.31 73.11-174.8 23.15-233.73-41.34-83.66-91.55-127.86-226.62-120.11-349.8 5.56-88.42 50.86-206.19 158.59-197.27 52.09 4.31 98 37.53 132.71 74.53 47.56 50.72 80.54 114.66 101 180.76 52.46 169.87-52.5-169.88-.04 0zm861.61 567.4c1.36 7.16 2.93 18.46-4.39 23.18-11.35 7.33-24.57-9.67-34.57-13-5.73-1.92-13-.06-18.09-1.85-6-2.14-13-10.45-17.89-14.39-16.17-13.12-39.33-26.52-49.8-44.49-8.15-14-14.71-29.17-22-43.62-5.29-10.5-5.24-15.39-5.28-27.51q-.06-16.85-.22-33.7c-.11-11.38-3.6-28.15-.61-39 2.38-8.68 9.17-16.88 11.09-27.34 1.24-6.74.55-17.47 4.91-23.08 14-18.07 41.33 26.65 47.86 36.27 42.14 62.1 74.61 134.72 89 208.6 1.37 7.18-.32-1.64-.01-.07zm-44.66 105.51c47 12.81 27.37 72 6.19 98.38-24.32 30.29-71.6 58.58-110.75 40.08-13.22-6.25-22.47-17.88-26.5-31.84-3.83-13.24 1.4-28.2-5-40.4-4.3-8.16-5.16-5.92-3.78-17.12 2.55-20.55 5.68-44.39 17.69-61.85 13.11-19 30.14-23.24 50.8-13 10.28 5.09 19.49 12.06 30 16.83 13.72 6.25 27.4 5 41.41 8.94 22.38 6.11-3.32-.93-.06-.02zm-145.19 83.12c-1.46-.8-.94-4.49 0 0-11.06-6.05-22.06-12.21-32.94-18.56-7.08-4.13-15-8-21.46-13.11-7.51-5.95-11.06-14.21-19-20.18" class="a"/><path d="M1680.31 2218.8c.18-.69-.5-4.51.11-5.12 3-3.06 17.91.28 21.57 1.71-.05 28 2.5 58.59-3 86.09-6.8-1.9-19.26.58-21.74-4.91-1.22-2.69.75-11 .9-13.81" class="a"/><path d="M1713.86 2099.15c-26.79-66.6-65.07-129.68-115.61-181-41.18-41.8-93.8-79.3-153.27-87.59m254.94 647.23c40.06-44.49 53.53-107.89 55.13-166.09m14.22 14.32c-2.83 60.73-18.29 125.81-59.67 172.34-82.58 92.87-209.8 44.56-288.44-26.39-111.89-101-180.44-259.54-183.53-409.5-2.27-110.2 44.24-256.57 177.65-254.91 63.75.79 122.87 35.87 169.16 77.2 61.7 55.09 107.85 127 139.39 203" class="a"/><path d="M1368.73 2093.08c-15.27 3.2-2.26 62.17-.37 70.54 7 31.22 21.36 60.94 35.34 89.57 13.29 27.21 27.67 54.25 44.92 79.19 6.55 9.47 23.73 38.32 38.92 34.52-25.43 15.53-51.69-29.65-62.53-46.25a585.83 585.83 0 0 1-51.08-98" class="a"/><path d="M1373.76 2094.59c6.79 3.56-1.35-.72 0 0 9.5 5 4.7 14.83 8.38 21.61 2.18 4 9.6 8 13.09 10.92l40.64 33.89c5.65 4.71 5.52 4.33 7.33 11 4.65 17.09 7.69 32.59 18.1 47.54 4.66 6.7 17.81 15.08 20.32 21.68 1.52 4-.23 12-.31 16.24q-.28 16.39-.47 32.78-.15 12-.26 24c0 3.8-.62 8.46-.11 12.12 1.12 8 3.35 7.74 8.39 14.43 5.16 6.85 9.72 23.63-2.64 26.33-5.38 1.17-11.77-4.68-15.32-7.77-15.23-13.21-26.35-32.28-36.61-49.35a772.89 772.89 0 0 1-38.61-73.68m136.25-321.04c.6 9.68-1.24 19.41-6.48 27.64-2.92 4.6-9.26 7.77-11.55 12-4.94 9.1-4.45 26.19-6.17 36.34-2.28 13.36-3 28.33-7.09 41.27-4.7 15-25.08 29.8-41 29.61-10.22-.12-19.52-8.36-28.23-13.61-6.86-4.13-16.87-8-22.54-13.69-2.07-2.09-2.4-4.39-4.1-7.09-6-9.54-14.6-15.19-21.81-23.53-34.19-39.55 10.4-82.56 40.32-106.89 20.17-16.41 41.42-27.25 67.94-22.2 20.58 3.91 39.32 17.91 40.74 40.17.66 11.04-1.88-28.99-.03-.02zm-31.5 310.04c-17.43 5.44-32.66-17.31-38.07-30.49s-11.15-41.87 6.7-49.24 34.08 16.74 39.59 30" class="a"/><path d="M1490.69 2103.42c-8.51 3.54-11.39 15.92-19.36 17.46 5.09-23.4 23.32-41.31 48.26-35.22 25.83 6.31 45 31.09 56 53.81 12.26 25.3 19.54 58.39 8.45 85.43-11.37 27.73-39.93 31.88-63.78 16 7.43-4.16 18 3.18 27.17-.63 6.85-2.85 11.74-8.64 14.95-15.17 8.69-17.66 5.73-40.24.2-58.32m-11.15-190.63c-12.1-7.88-24.64-15.14-37.46-21.78 4.42-2.62 9.34-12.43 12.86-13.65 5.06-1.77 19 7.84 23.52 10.3 13.26 7.27 29.64 16.49 38.76 29-1.14 2.47-7.23 15.9-10.79 16.16" class="a"/><path d="M1520.43 2170.76c8.26 19.9 16.51 61.09-8.56 73.57-29.11 14.48-55.83-28.37-63.51-50.22-7-19.91-12.79-62.46 15.4-69.75 26.27-6.79 48.44 26.54 56.67 46.41 13.74 33.03-13.69-33.09 0-.01zm-273.07-1076.33c0 11.39-12.73 18.39-22.55 17.06s-20.07-8.91-30.27-6.91c11.43-3.33 34.91-10.26 34.18-25.82 7 2.71 17.91 7 18.65 15.67-.01.05-.07-.64-.01 0z" class="a"/><path d="M1247.52 1097.21c.91 13.42 4.05 31.11 0 44.14-2 6.59-10 17.88-17.43 18.17l-.95-33.26c-.07-2.35-1.75-12-.4-14-1.08 1.61 8.67-2.72 8.21-2.46 4.67-2.55 10.23-9.57 10.37-15.15l.17 2.56c.28 3.67-.06-1.06.03 0z" class="a"/><path d="M1230.12 1159.53c-9.75.47-22-8.76-31.06-3.31l-2.79-51.89c5.37-.32 10.66 1.9 15.68 3.45 2.69.83 15.35 2.53 16.82 4.19 1.33 1.5.27 9.5.32 11.38z" class="a"/><path d="M1181.43 1173.57a14.23 14.23 0 0 1-5.88 3.2c-.37-13.4-3.34-29.35-1.18-42.54 1.49-9.06 11.1-28.9 21.86-29.9l1.82 33.92c.24 4.46 2.19 12 .88 16.34-1.64 5.39-12.78 14.69-17.51 19-1.65 1.56 7.07-6.44.01-.02z" class="a"/><path d="M1175.58 1176.77c-13.28 4.07-30.89 1.18-44.68 1.57-3.52.1-14.82 1.93-17.68-.58s-.28-.51-1.65-4.74c-3.69-11.42.3-30.19.43-42.31 9.62 3.65 23.62.95 33.61.56 6.52-.25 23 2.27 28.65-1.52.6 15.63.89 31.35 1.32 47.02z" class="a"/><path d="M1112 1130.7c-10.17-3.91-14.85-18-26.29-18.92 35.51 3.83 73.49 2.84 108-7-14.92 4.89-10.34 24.6-28 25.71-15.43 1-39.08 5.74-53.7.19-10.85-4.14 1.81.71-.01.02zm-55.34 36.69l-5.88.47.17-35.19c0-4.53-.61-8.2 1.64-10.86 4.32-5.11 24.72-10 31.3-10.09l.27 55.23c-9.17-.88-18.4-1.34-27.5.44z" class="a"/><path d="M1084.16 1166.95l-.27-55.23c8.92-.44 19 10.82 24.31 17 4.32 5 3.79 2.87 3.7 11.24l-.38 37.49c-10.09-2.11-16.28-9.98-27.36-10.5z" class="a"/><path d="M1051.01 1122.23c-8.5 1.57-24.44-7.83-31.81-11.43-4.93-2.41-9.06-2.43-9.44-8.51-.27-4.37 8.75-9.78 6.05-14.38 14.15 18.43 48.9 21.64 69.9 23.86-12.47-1.17-22.93 8.33-34.7 10.45zm-38.16-50.73c0 5.49-.82 11.3 2.65 16-3.37-3.56-15-.74-16.69-5-2-5.13 10.16-13.12 14.29-13.31z" class="a"/><path d="M1015.81 1087.92c1.74 3-6.1 16.7-6.63 21.53-.67 6.14 2.27 32.43-9 24.74-9.34-6.39-2.2-41.84-1.84-52.32.38 4.48 14.61 2.47 17.44 6 2.1 3.58-.08-.09.03.05z" class="a"/><path d="M1051.01 1122.23l-.22 45.63c-10.34-.23-40.06-8.66-43.42-19-3.72-11.46 1.28-31.52 2-43.8.85 5.56 35.69 18.27 41.64 17.17zm-178.15 39.97l59.64-23.23c-15 10.19-18.26 23.13-18.26 40.47m237.19 355.17c0 17.95 3.32 42.32-6.11 58.7" class="a"/><path d="M1028.51 1669.49c-15.55 10-32.12 21.66-50.14 26.78-14.11 4-42.2 6.73-55.11-1.06-11.28-6.81-9-22.25-9-33.7v-146.13c0-110.79-.74-221.62 0-332.41 0-7.27-1.88-19.58 6.31-23.27s22.32 4.38 29.55 7.37c18.05 7.46 35.69 15.92 53.59 23.74 28.79 12.58 58 23.93 87.42 34.92 16.37 6.12 40.12 12.6 51.49 27.16 8.21 10.51 6.11 24.9 6.12 37.38m-49.1 1004.88c12.58 15.75 66.3 44.78 82.89 21.54-25 44-74.87 37-110.32 10-34.13-26-58.33-64.76-73.92-104.25-16.82-42.6-26.41-92.41-15.19-137.67 10.29-41.5 43.38-71.68 88-56.23-26.7-6.5-45.39 21.5-50.15 44-2.65 12.54 2.15 26.77-1.59 37.62-5 14.5-10.43 25.95-10.92 41.89-1.67 53.1 32.35 132.88 91.2 143.1z" class="a"/><path d="M1170.79 2265.99c29.79-27.21 20.33-80.53 7.85-113.33 18.18 46.56 31.63 112.09 6.56 159-15.66 29.3-70.54 2.11-85.57-16.49m138.54-115.53c-28.25-50.61-58.34-103.74-100.21-144.55-26.19-25.52-60.45-45.77-98-34.9 28.58-11.51 58.78-25 90.28-23.48 38.43 1.84 69.17 27.82 93.19 55.73" class="a"/><path d="M1039.7 2554.88c2.79-51.52-7.21-105.41-14-156.31-7-52.28-14.81-104.44-23.2-156.51-3.55-22-13-41.87-17.82-63.7-8.89-39.9-11.79-90 11.9-125.79 14.17-21.39 39.34-30.54 64-33.54 26.9-3.28 49.39 10.57 67.86 29 35 35 60.7 80.73 88.88 121.28l29.32 42.18q-4.67-15.81-8.47-31.86c-70.67-126.62 2.51 10.56 0 0-29.12-52.16-60.26-107.87-104.67-148.8-30.88-28.46-67.34-42.8-107.47-25.08-48 21.2-52.6 79.18-51.49 125.31m200.35 12.45c-21.33-49.83-77.22-135.45-143.64-117.25" class="a"/><path d="M1187.43 2126.35l53.29 76.68c3.67 5.28 5.48 8.31 7.65 14.35 9.37 26 17.7 52.09 29.19 77.35-41.55 16.45-82.87 33.85-124.49 50m634.96-601.08c21.21 4.39 50.13-3.4 69.68-11.87 17.54-7.59 30.89-21.9 39.58-38.7 21.9-42.35 16.18-95.65-2-138.16-15.67-36.58-45.4-76-86.41-85.26-20.71-4.65-38.37 2.13-57.08 10.78-15.33 7.08-31.67 14.51-42.38 28 15.41-51.08 61.14-87.19 114.89-67.58 52.84 19.27 87.48 74.41 103.33 125.76 27.53 89-27.5-89.07 0 0 15.28 49.44 17.89 110-10.13 155.67" class="a"/><path d="M1731.84 1490.47c28.86-16.14 59.06-30.08 91.42-16 35.34 15.36 60.18 50.54 74 85.32 15.55 39.08 20.34 85.82 3.71 125.39-16.18 38.51-47.7 50.69-86.43 58.07 65.48-16.2 58.88-113.38 42.12-161-16.12-45.78-66.67-118.28-124.83-91.79 1.2-.65 2.19-.98.01.01z" class="a"/><path d="M1724.3 1662.03c16.17 33 53 77.63 95.23 64.54 39.15-12.08-39.14 12.11 0 0 40.38-12.46 47-66.36 42.92-101.7-4.89-42.82-25.49-90.41-62.45-115.09-29.65-19.79-65.05-14.45-82.58 18.11m141.84 62.16c12.91 41.76 16.16 98.82-14.7 134.12-31 35.49-78.13 18.83-106.51-10.72-36.44-37.94-55.08-95.9-49.67-148 4.09-39.39 28.4-85.31 74.39-79.57 49.93 6.23 83 60.65 96.48 104.14 21.75 70.35-21.7-70.25.01.03z" class="a"/><path d="M1776.01 1580.95c-33-4.5-22.74 64.61 7 67.21 34.18 3 22.16-63.86-7-67.21-2.24-.3 10.34 1.2 0 0zm-6.58.55a15.36 15.36 0 0 1 6.62-.55m245.74 1106.04c6.26 3.65 4.61 25.15 4.8 30.88.6 17.62.27 35.28-.22 52.9-.54 19.26 5.41 44.4-20.19 44-31.57-.52-64.9-11.77-95.31-19.51-35.65-9.07-71.2-18.53-106.71-28.1q-33.29-9-66.53-18.11c49-16.76 100.58-27.34 151-39 28.74-6.65 57.55-13.15 86.56-18.48 10.57-1.94 36.23-10.6 46.61-4.56z" class="a"/><path d="M2025.24 2800.09c-1.49 26.82-43.9 11.85-60.21 8.28-28.41-6.21-56.58-13.67-84.71-21q-71.48-18.64-142.68-38.34c55.42-19 114-30.73 171-43.58 28.91-6.51 58-13.15 87.31-17.39 5.78-.84 17.87-4.37 23.53-1.72 6.32 3 5.8 11.41 6.37 18 2.76 31.62 1.14 64.14-.62 95.8zm-1617-1428.46c-29.07 9.08-53.06-26.84-62.64-48.95-9.89-22.83-21.61-104.05 28.26-88.93-21.79 16.82-15.17 55.18-7.41 77.06 8 22.48 24 49.72 48.43 57.12-1.56 1.22-4.45 3.27-6.64 3.7zm-31.16-132.57c12.94-11.94 40.53 39.4 44.15 48.82 11.56 30.2-9.71-25.33 0 0 5.25 13.72 8.42 28.51 8 43.24-.17 5.68-1.79 29.93-9.45 31.93" class="a"/><path d="M388.32 1219.22c24.65-6.23 49.58-11.78 74-18.72 9.88-2.81 18.56-7.47 29.19-4.79 22.07 5.57 37.07 29.69 45 49.25 9 22.32 14.43 52.49 2.84 75-6.76 13.12-16.53 15.56-29.41 19.51-24.07 7.38-47.71 16.72-71.47 25.05" class="a"/><path d="M537.23 1334.69a34 34 0 0 1-18.84 2.57c39.4-7 27.46-70.68 17.14-94.8-12.32-28.78-35.12-54.69-67.57-43.37 25.83-36 63.93 7.2 75.72 31.24 12.28 25.04 29.09 88.41-6.45 104.36zm41.84-664.89c25.93-4.94 45.09 3.33 65.83 18.86 14.63 11 28.05 23.28 41.69 35.4 14.85 13.2 35 19.77 53.17 27.14-14.71-18.44-29.18-37.1-44.13-55.34-12.76-15.57-39.86-21.12-57.86-29-30.64-13.38-63.32-35.67-97.92-29.42-24.63 4.45-48.16 16.38-70.11 27.91-20.71 10.88-32.84 25.87-38.92 48.58-9 33.8-9.79 71.39-12.68 106.25-3.05 36.78-5.68 73.59-8.31 110.4-1.72 24-9.84 47 16.92 58.18 23 9.59 48.34 12.46 72.71 16.6 31.27 5.31 62.56 10.56 93.82 15.94 11 1.9 52.11 4 54 12.3m1153.83 1272.02c20.17-103.05 48.28-205.08 72.61-307.2q24.88-104.44 49.57-208.93c15.79-67.07 37.44-134.87 21.64-204.09-15.69-68.73-75.13-173.89-160.84-150.6 24-7.2 48-14.18 72.3-20.2 13.47-3.34 27.39-8.08 41.27-5.12 30 6.4 58 28.42 77.85 50.89 63 71.34 51.51 163.36 33.27 249-36.31 170.43-80.58 339.61-122.19 508.84-9.27 37.68-18.93 75.27-29.49 112.61-10.27 36.31-20.33 73.4-39.82 106.06-28.16 47.19-72.17 67.25-120.7 87.84 14.36-11.07 27.68-20.52 38.79-36.1 37.52-52.59 53.56-120.78 65.74-183z" class="a"/><path d="M1509.32 1777.26a195.47 195.47 0 0 0-50.38 8.51c-7.51 2.25-14.89 4.9-22.18 7.74-10.82 4.22-16.61 4.65-28.68 4.65 58.07-52.32 147.53-42 210.85-6.9 88.32 48.91 150 133.51 192.4 223.23 9.93 21 19.19 42.54 26.48 64.63-2.35 9.75-4.79 19.47-7.26 29.19-15.89-61-47-120.47-82.58-171.93M507.24 1481.2q-4 11.21-7 22.76l-23.3-84.57-13.66-49.57c-3.87-14-4.66-12.32 10.06-17.48 11.34 42.94 23 85.81 33.93 128.85-2.65 7.32-.47-1.73-.03.01zm-86.12-694.24c-5.22 52.29-8.5 104.8-12.28 157.21-7.47-7.93-18.76-14-22.78-23.52-3.83-9.06-4.3-21.73-5.57-31.39a402.66 402.66 0 0 1-3.28-64.79c.47-15.08 1.12-31.28 5.79-45.76 3.66-11.37 7.52-5.72 17.58-1.16 6.62 3 14.34 5.54 20.54 9.42-3.92 39.18-.14-.09 0-.01zm-35.01 302.78l33.49 121.57c-11.16 2.82-22.81 4.91-33.74 8.54-4.63 1.54-29.93 15.37-30.74 12.6-.1-.33 16.72-17 18.55-19.82 6.52-10 10.71-21.51 13.48-33.11 6.98-29.3 5.18-60.55-1.04-89.78z" class="a"/><path d="M405.67 1099.8q14.8 53.77 29.13 107.68c-2.64.66-13.29 5-15.23 3.72-1-.66-1.26-5.38-1.76-6.4-5.29-10.83-7-25.25-10.16-36.89-7-25.47-14.52-50.86-21.06-76.45-10.93-42.73-26.74-84.45-58-116.69-26.61-27.41-70.85-47.55-100.82-12.44 9.67-13.59 22.9-25.71 39.59-29.49 10.69 0 19.44-1.56 30.11 1.89 12.89 4.17 24.4 12 34.54 20.85" class="a"/><path d="M359.34 986.04c-20-27.61-54.16-61.75-92-53.23q18.81-5.51 37.61-11.09c17.68-5.22 35-11.7 53.68-8.17 16.84 3.18 31.66 12.89 44 24.46 11.58 10.89.3 23.23 5.53 36.3 4.17 10.42 18 14.52 27.54 17.67 15.6 5.13 22.24 31.89 27.82 46.92 5.72 15.42 10 31.23 14.33 47.09 6.43 23.92-.47-1.74 0 0 8.66 32.21 17 64.49 25.41 96.77-4.72 1.15-9.62 2-14.26 3.47-9.09 2.82-13.35 8.57-21 12.86-6 3.35-22.3 7.76-29 7.34-1-.06-3.24 1.49-4.12 1-2.38-1.21-4.43-16.54-5-18.82q-4.84-18-9.7-36-9-33.16-18.1-66.27m139.81 246.81q6 23.71 12.08 47.42c1.15 4.52 6.63 16.34 5.32 21-1 3.69-11.54 10.94-14.27 14a165.3 165.3 0 0 0-14.25 18.37 214.18 214.18 0 0 0-23.53 47.33c-10.11-39.83-20.9-79.5-31.39-119.23-2.92-11-3.08-9.44 6.54-12.81l23.89-8.38c11.81-4.21 23.75-3.49 35.61-7.7zm207-142.11c-39.61-23.34-65.93-65.67-82.26-107.53-33.29-85.34-39.55-215.11 31.75-284.66 40.48-39.49 97-33.38 137.88 2.92-37.25 9.13-68.66 42.21-86.53 74.63-5.92 10.74-9.39 22.89-16.23 33.08-4.37 6.51-10.7 11.3-15.15 17.67-12.56 18-7.65 34.78 5.19 50.16 5.88 7 12.7 13.69 16.56 22.16 4.67 10.26 5.12 22.42 7.83 33.33a249.43 249.43 0 0 0 26.91 66.69c20.37 34.5 51.82 66.5 92.13 75.62" class="a"/><path d="M919.04 1007.04c1.48 50-7.34 103.62-34.92 146.28-56.82-43.42-83-120.74-86.81-189.76 41 13 81.27 28.78 121.73 43.47 1.71 57.82-21.35-7.75 0 .01z" class="a"/><path d="M797.3 963.56c-17.74-5.64-19-19.41-12-36.11 2.81-6.66 9.23-19.95 16.11-18.94 5.4.79 14.27 7.75 19.33 10.08 20.54 9.47 41.9 17.25 63.09 25.12q8.68 3.22 17.38 6.41c10.47 3.85 12.3 3.56 14 14.62a350.52 350.52 0 0 1 3.82 42.3c-40.46-14.69-80.69-30.45-121.73-43.47z" class="a"/><path d="M913.52 954.62c-37.73-13.81-80.14-25.44-114.15-47.42 4.92-36.4 17-73.38 40.25-102.34 41.17 38.66 64 95.1 73.9 149.76-56.52-20.69-11.48-63.52 0 0zm125.27 725.72c13.47 72.95 7 157-35.36 220.19-5.05 7.53-7.67 8.65-16.51 13.6-26.06 14.58-52.37 28.76-79.26 41.77-34.72 16.79-75.9 38.19-115.6 37.43m122.18-513.89c3.58 7.07 0 24.88 0 32.75 0 50.83-.18 101.66 0 152.48.07 21 2.63 32.68 26.09 34m-207.41-292.7c-41.42-28.33-94.23-44.17-142.46-23.61 48.27-26.32 104.91-47.93 159.86-54.63 29.32-3.57 59.71-1.3 86.87 11 2.8 1.27 7.8 3.14 10.38 5.23 7.36 6 3.4 2 5.34 9.49" class="a"/><path d="M1719.21 1484.15c-6.2 11.84-8.48 27-18.75 35.94-3.27 2.86-8.09 4.85-11.81 7.08l-50.89 30.51q-89.95 53.91-179.94 107.74c-132.88 79.48-265.68 159.13-399.18 237.57-84.68 49.76-170.62 105.18-272.84 99.21m837.13-473.22l115.45-71.09a104.86 104.86 0 0 0-19.17 26.26m-389.72 231.65l36.92-23.52m-164.67 102.95l101.53-61.53m156.35-103.15l101.53-61.53m-560.39 340.59l183.35-101.93M847.49 793.53c-11.82-10.2-25.11-18.91-39.66-24.69a109.13 109.13 0 0 0-21-6.07c-7.38-1.32-17.13.17-23.94-2.41q2.93-.78 5.88-1.52c11.61-2.89-3.45.88 0 0 30.48-7.59 58.1-17.65 88.8-8.05 34.26 10.71 63.31 34.61 84.47 63.15 35.91 48.42 52.37 111.14 57.31 170.44 3.36 40.39.89 83.86-15.38 121.56-6.91 16-15.59 15.31-32.32 22.82s-32.57 15.45-49.87 22.18m465.33 568.71q9.72-5.84 19.42-11.61m-111.78 66.73c30.37-18.1 61.46-36.66 92.36-55.12m47.42-536.5c-6.32-33.74-26.62-45.46-46.18-53.43" class="a"/><path d="M1457.29 1134.2q-87.86-117.84-176.32-235.23c-30.88-40.92-61.47-82.14-93.43-122.23-19.19-24.07-44.76-40.2-71-55.84-47.27-28.13-96.36-55.66-146.67-78-17.56-7.79-30.05-11.12-49-8-26.82 4.39-53.31 11.42-79.57 18.31-26.47 7-53.75 13.24-79.56 22.42-20.43 7.27-36.58 24.53-48.53 42.19-6.69-8.39-14.94-24.77-24.77-29.08 13.83-22.05 38.36-32.67 62-40.88 34.27-11.89 69.93-19.93 104.81-29.81 31.62-9 64.69-18.84 97.92-17.18 31.38 1.56 58.58 18 85.89 32 49.83 25.6 101.06 51.78 146.24 85.14 6.9 5.1 14.26 10.41 19.93 16.92 6.3 7.23 3.3 11.66 6.58 20.14 4.24 11 15.85 19.77 23.9 27.93 9.66 9.79 19.8 19.4 28.91 29.7 32.7 37 59.75 80.84 88.91 120.64l132.45 180.81c8 11 15.88 26.55 27.5 34.41 10.39 7 24.16 7.57 36.25 7.19 32.37-1 64.77-10.26 95.58-19.45q-26.24 20.34-52.71 40.39m-.01 0q-88.34 67.14-177.6 133.07c.8-40.62 7.11-86.45-.47-126.64m518.03 503.18l-28.25 117.15m-6.16 25.56l-5.89 24.41m-5.65 23.06l-40.19 169.67m-118.98-345.06c9.7 12.58 21.39 24.05 35.07 32.26 11.05 6.63 23.32 9.32 34.2 15.93m21.95-511.13c-10.11 7.37-11.94 18.27-21.73 24.77-8.21 5.46-17.14 12.14-23.63 19.56-.49-8.62-4.66-24.19-1.82-32.14.69-1.93 7-7.36 9.32-8.39 7.38-3.33 1.42-1.72 9.23.47 10.61 3 18.62 1.1 28.62-4.27-7.43 5.46-15.96 8.6.01 0zm176.69-123.67c-3.23-1.37-14.5-4.53-16.83-7.15-1-1.18-2.06-8.66-2.62-10.29a64.89 64.89 0 0 0-9.57-18.17c-8.85-11.67-21.68-19.19-36.57-19-24.57.37-53.18 15.75-76.15 23.67l-74.57 25.72c-4.64 1.6-11.67 5.72-16.66 5.75-10.81.06-27.59-8.16-37.81-12.14l137.61-52.36c17.38-6.61 26-6.89 45.3-5.71 21.78 1.32 44.16 1.46 61.74 16.18 15.78 13.22 23 33.73 26.14 53.48-5.7-2.38-6.66-41.22-.01.02z" class="a"/><path d="M1664.12 1100.85c10.4-7 23.35-10.8 35-15.17 23.77-8.94 47.65-17.61 71.54-26.21 33.68-12.12 68.26-27.21 103.31-34.94 26.33-5.81 56.5-1.34 83.1.31 30.56 1.89 64.6-1.57 85.06 25.45 14.72 19.43 31.76 85.3-12.69 78.2-5.83-.93-12.07-4.79-17.42-7-3.38-1.41-14.5-4.13-16.64-7-1.83-2.45-2-10.45-2.87-13.59-4.36-16.21-12.31-32-26.1-42.12-12.65-9.31-27.41-11.75-42.72-12.89-13.18-1-28.8-4-42.05-2.28-10.27 1.34-21.34 7.66-31 11.33l-126 48c18.87 7.38 38.36 10 54.64 23 18.95 15.06 26.79 35.26 26.23 59.13-.64 27.4-11.68 48.39-34 64.36-11.18 8-23.08 13.41-32.18 24-19.48 22.69-25.29 55.05-28.5 83.8-2.63 23.51-3.16 47.25-2.91 70.89q.12 11.48.52 23c.17 5 3.52 20.72 1.08 24.79-2.3 3.83-12.87 8-16.71 10.32l-19.87 12.27c-8.69-79.39-19.62-187.7 56.16-239.07 20.14-13.66 41.08-23.28 42.85-50.51 2.19-33.73-12.14-70.12-45.63-81.93-13.36-4.71-27.38-5.33-41.29-7.1-9.75-1.24-33.17-6.11-20.83-18.92 8-5.52-.11-.09-.08-.12z" class="a"/><path d="M2055.67 1076.88c29.83 1.3 58.74 18 78.07 40.08-16 3.9-31.88 8.51-47.64 13.36-7.86 2.42-21.11 9.81-29.13 9.34-8.59-.51-20.88-8.25-28.74-11.48 29.91 7.97 33.57-31.96 27.44-51.3zm1.76 654.69c9.15 11 12.05 17.15.92 26.25-9.19 7.51-18.81 14.91-29.51 20.16-8.21 4-19.45 8.46-27.91 2.64-12.45-8.57 0-35.41 2.68-47.69 14.36 24 36.22 15.87 53.82-1.36z" class="a"/><path d="M2015.01 1687.79c9.36 13.08 23.45 23.28 34.46 34.93 8.81 9.33 9.7 8.56-.85 16.47-6 4.49-13.23 9.24-21 9.72-8.44.53-18-4.45-21.71-12.39-4.22-9.01 2.41-40.81 9.1-48.73z" class="a"/><path d="M2022.43 1674.36a107.49 107.49 0 0 1-9.91 17.1c16.6-81 20.86-166.62-38.06-232.25-16.58-18.47-37.08-34.3-60-44.07-26.24-11.19-47.35-3.56-74.74 3.78 54-48.77 123.92-1.16 156.77 47.73 38.82 57.79 56.92 142.68 25.93 207.71-2.23 4.79 2.01-4.21.01 0zm64.88-171.48c7.45 21.41 10.17 41.42-18.47 34.88-15.6-3.56-23.16-12.31-27-27.5-2.69-10.63-2.51-61.26 14.72-61.75 12.56-.36 27.53 45.07 30.76 54.37 5.5 15.87-3.46-9.9-.01 0z" class="a"/><path d="M2084.74 1539.66c-6.94 6.86-7 8.37-16.61 8.75a132.75 132.75 0 0 1-26.76-1.5c-6.17-1-8.85-1.42-11.87-6.16s-3.9-13.59-5.8-19.06a250.42 250.42 0 0 0-9.62-23.8c-4.24-9.09-13.15-18.72-11-27.78 2.77-11.46 13.39-24.52 19.14-34.73 5.33-9.48 9.15-19.57 21.27-12 10.47 6.55 16.73 22.81 22.19 33.29-17.25-30.71-27.17 40.88-23.91 53.59 5.66 22.09 20.93 28.25 42.92 29.39-2.65 2.68-35.59-1.84.05.01zm3.28 118.17c-.23 8.06 2.69 36.13-10.87 33.62-10.18-1.89-23.82-24-30-31.3-7.62-9.12-14.57-13.42-12.61-25.12a215.94 215.94 0 0 0 .58-66.3c5.71 0 11.42-.68 17.1-1.16-3.34 20-6 43.95 5.86 61.81 7.7 11.59 20.45 18.5 29.9 28.45-.18 7.73-20.89-22.07.04 0z" class="a"/><path d="M2088.22 1586.55c.81 23.73.44 47.55-.19 71.28-14.41-15.19-32.26-23.77-36.94-46a88.62 88.62 0 0 1-1.33-22.23c.22-4.9-.18-11.55 1.58-16 2.54-6.46-.26-4.79 7-6.46 14.21-3.26 29.37 4 29.89 19.39.68 20.1-.7-20.61-.01.02zm179.92-304.03c6.09 15.8-9.09 21.34-15 5.79-6-15.79 9.06-21.23 15-5.79zm-258.76 116.92c14.74 19.65-6.81 44.23-17.46 60.63-3.23-4.45-17.65-17-18.15-21.57s11-19.28 13.57-23.81c3.45-6 13.46-26.7 22-15.25zm-68.95-142.07c-1.45 7.58-3.93 52.87-13.24 50.39-3.39-.9-3.8-24.78-3.57-28.38.73-11.38 6.7-17.14 16.81-22-2.36 12.24-2.36 1.13 0-.01zm16.56-28.16c-11.15 9-12 24.67-22.73 31.53m65.24-23.59c2.06-1.07 17-8.2 19.25-4.46.56 1-19.36 12.3-20.53 13.25a64.32 64.32 0 0 0-18.34 24.7m-6.78-.08c1 6.1 4.7 4.33 6.79.09-4.91 11.3-6.78 23.23-9.49 35.15-1.86 8.17-3.58 15.43-10.2 4.53-9.22-15.19-.45-32.69 12.9-39.76 1 6.25-8.08 4.27 0-.01zm35.59 23.59c9.82 6.17 13.14 4.56 10.21 15.27-1.87 6.86-3.6 13.83-5.91 20.55-2.67 7.78-3.32 14-12 8.48-14.32-9.15-7.36-39.59 7.72-44.31 12.53 7.89-14.72 4.61-.02.01z" class="a"/><path d="M2029.38 1242.2c14.17-5.12 28.39-12.39 42.64-4.37 21.41 12.06 8.16 18.52-6.88 26.24 15.92-5.4-11.33-8.22-15.57-7.7-15.53 1.87-32.64 9.76-38.71 25.2-1.19 3-.66 7.89-2.07 10.37-1.81 3.17-4.33 2.61-7.12 5.24-5 4.7-5.89 7.64-6.55 14.6-1.37 14.39-1.71 24.48 13.09 29.81m-164.32-22.15c-5.77 4.45-14.2-18.66-15-21.26-3-10.33-.15-12.07 9.47-15.43 2.22 12 5.07 24.41 5.49 36.69-3.1 2.43-.26-8.74.04 0zm-21.4 23.92c-6.94 4.47-25-29.1-27.29-33.1-11.31-20.08-15.64-39.71 9.22-51.67-2 9.64 1.52 19.13 4.44 28.19 2.33 7.23 3 8.26 1.68 14.12-.48 2.08-2.44 3.57-2.79 6-.77 5.41 17 35 14.74 36.46-6.43 4.14 1.68-1.08 0 0zm67.39 10.31c-10.52 3.82-22.78 9.16-31.06 16.8-13.24 12.21 1 22.1 10.51 31.42a76.48 76.48 0 0 0-17.8 8.11c-2.44 1.51-5.36 4.78-8 5.69-5.84 2-2.24 3.51-8-1.16-9.38-7.59-16.82-22.39-10.48-33.65 7.89-14.05 50.15-42.48 64.83-27.21z" class="a"/><path d="M1889.88 1353.67c10.14 10.34 9.32 31.48 9.32 45.1a80.74 80.74 0 0 0-18.06.48c-8.66 1.23-8.76 3.52-15.66-1-5.25-3.46-13.5-12.16-12.62-18.91 1.68-12.83 26.38-21.81 37.02-25.67zm104.13 20.31q0 4.9-2.81 4.88c-5.22-14.19-56.16-47-56.67-20.26-.22 11.57 3.68 34 9.47 44.44 4.57 8.19 14.8 15.5 23.75 18.25q-2.07 3.79-4.19 7.56c-12.44-10.81-25.69-17.17-40.13-24.46-8.8-4.44-7.67-5.46-9-15.23-1-7-2-13.91-2.82-20.88-1.46-12.26-8.37-41.83 10.51-41.66 10.85.1 91.22 30.54 71.91 47.37-.95 1.59.01-.04-.02-.01z" class="a"/><path d="M1991.2 1378.86c-5.75 10.29-11.51 20.74-17.22 31.13-4.23 7.68-3.22 10.49-10.07 9.84-6.65-.63-16.67-11.07-19.91-16.79-3.94-7-4.09-15.65-5.43-23.31-2.13-12.15-11.39-34.54 9.07-30.54 16.65 3.25 37.38 12.86 43.56 29.67zm-86.84-120.13c.15 7.19 4.64 56.92-9.3 46.45-5.05-3.8-5.86-25.41-5.14-31.5 1.01-8.53 5.45-13.75 14.44-14.95zm-33.79 9.7c1.15 9.84 2.44 19.88 2.19 29.81-.27 10.55-3.47 12.14-8.9 2.68-7.26-12.61-10.8-29.19 6.71-32.49z" class="a"/><path d="M1869.43 1258.28c.8 7.92 10.31 56.76-3.23 57.49-12.69.68-16.14-33.74-17.47-41.57-3.82-22.45-7.12-38.1 13.44-52.44 15.68-10.94 35.54-18.38 54.07-22.76-14.7 6-33 13.37-42.27 27.06-6.68 9.88-5.69 20.92-4.54 32.22.23 2.74-2.06-19.77 0 0zm206.38-102.97c11-4.41 25.5-.06 36.19 3 23.56 6.8 46.08 17.58 67.81 28.79q-16.92 7.17-33.77 14.5c-4.14 1.81-24.74 8.77-21.84 12.65m-.01.01c7.6 9 19.36 13.09 27.86 21.05 2.15 2 6.57 5.58 6.65 8.91.11 5.13-12.68 7.92-17.9 10.06" class="a"/><path d="M2167.31 1228.88c12.6 7 26.24 15.52 33.95 28.12 2.72 4.45 11.22 24.76 4.43 27.11 1.71-12.69-6-29.71-16.3-37-11-7.74-18.73-4.51-30-.22-1.37-7.79-7.68-12-13.63-16.3-4.14-3-20.25-10.29-21.54-16.36-1.37-6.42 8.21-1.88 11.9-.55 10.84 3.89 21.18 9.59 31.22 15.17 34.09 18.98-23.12-12.8-.03.03zm105.12 71.87c8.84-14.8-4.23-36.13-20.65-32.07-.62-34.58 31.63-4.28 36.41 12 3.13 10.68-1.81 21.42 1.05 32.19 3 11.24 11.26 21.59 16.49 31.86a635 635 0 0 1 41.85 102.68c17 55.83 22.29 112 17.87 170.16-1 13.55-3.8 27-4.66 40.54-.42 6.65 1.41 12.08 1 18.71-.75 12.71-3.86 25.44-5.66 38-1.69 11.86-1.52 24.18-4.54 35.8-2.7 10.39-4.25 18.23-12.41 23.94-14.2 9.93-33.15 16.46-48.81 23.87l9.82-26.15" class="a"/><path d="M2277.12 1733.33c28.82-47.81 28.81-113.88 24.27-167.28-7.3-85.82-34.71-174-91-240.62" class="a"/><path d="M2235.18 1273.69c-9.17 3-18.26 6.35-27.35 9.62-.05-20.08-9.64-33.82-25.67-45.23-13.41-9.55-39.43-27.75-57-27.15 25.23-11.7 51-22.21 76.6-33.08 37.3 16.3 71.46 32.42 96.79 65.39 6.49 8.45 13.61 18.51 15.52 29.25 1.61 9-4.17 19.24-1.32 27.72 2.45 7.26 10.43 14.15 14.58 20.56a353.47 353.47 0 0 1 20.75 37.12c26.08 53.36 39.82 108.75 43.33 167.86a762.76 762.76 0 0 1 .84 78.39c-.71 16.21-3.41 32.65-2.9 48.83.7 22.13-4.11 45.28-6.64 67.41-1.14 10-2.34 18.6-6.1 27.94-5.73 14.27-18.5 16.81-32.08 23.57 5.63-17.74 8.54-33.4 10.85-51.79 2.21-17.62 7-35.54 5.68-53-1.87-24.85 4.91-51.7 5.79-76.82 3.4-96.71-29.7-183.1-73.27-267.29-6.45-12.46-3.79-20.63-4.31-33.9-.49-12.38-8.14-22.33-16.71-30.84-4-3.93-8.68-8.91-14.63-6m-279.42-144.91l-48.9-20.54m-110.96 151.35c14-7.58 28.47-14.44 42.83-21.35 10.8-5.19 26.26-9.43 35.42-17.39 15.6-13.56-12.32-22.49-22.56-27.45-9.78-4.74-31-15.52-36.23.8-.76-17.93-7.69-33.54-18.85-47.36q45.91 18.56 91.84 37.06" class="a"/><path d="M1407.55 2900.33c-35 0-68-20.5-98.66-35.28q-57.48-27.69-114.84-55.65-35.23-17.13-70.44-34.29l-23.53-11.46c-6.2-3-6.4-3.25-12.46-.27s-11.49 8.1-17 11.82c-17.67 12-35.37 24.64-54.38 34.39-16.85 8.64-34.75 12.74-52 19.9-25.08 10.43-46.58 22.65-74.13 26.59-24.74 3.54-50 1.76-74.25-4-51.89-12.26-98.68-41.47-138.62-76.07-79.66-69-137.58-162.25-176.18-259.58-11.55-29.13-18.75-59.34-29.12-88.75-4.69-13.29-17.91-24.2-26.06-36.1a210.22 210.22 0 0 1-19.24-34.51 195.9 195.9 0 0 1-15.71-61.92c-.78-9.22-.17-18.28-.41-27.47-.36-14-4-27.76-4.08-41.91l-27.44 7.88c-14.94 4.29-25.07 12.65-39.32 18.95-43.31 19.15-91.41 7.49-130.32-16.32-17.21-10.54-35.84-17.44-53-28.17-20.53-12.82-38.68-29.29-54.68-47.38-30.95-35-54.38-76.62-71.09-120.1-17.61-45.81-28.37-95.13-27.61-144.37a253.34 253.34 0 0 1 7.2-58 186.31 186.31 0 0 1 8.38-25.65c4.37-10.58 12.89-20 16.83-30.39 6-15.92-6.33-32.89-5.87-48.77.42-14.47 14.71-19.66 26-25.67 28.58-15.15 59.18-26.53 89.73-37 33.82-11.59 68.13-21.68 102.54-31.36 12.28-3.46 24.6-6.78 36.84-10.36 4.34-1.27 12.38-2.16 15.87-5.39-3.79-.62-7.46-21-8.24-23.8-5.5-19.8-10.37-39.77-15.23-59.73-14.28-58.73-27.71-117.66-41-176.62q-18.33-81.09-36.18-162.29c-3.11-14.1-5.76-28.4-9.31-42.4-7.75-30.6-19.41-58.8-22.45-90.79-5.43-57.13 8.32-120.88 57.59-156.13 12.76-9.13 27-13.38 41.75-17.74 24-7.08 49.14-17.57 74.27-18.71a441.18 441.18 0 0 1-1.47-54.39c.16-4.56 4.41-25 2.28-28.66-1.57-2.75-13.66-7.44-16.95-10.06a85.47 85.47 0 0 1-14.28-14.71c-6.77-8.78-5.65-14.66-16.91-11.87q-22.75 5.64-45.56 11-24.54 5.78-49.17 11.16c-14.61 3.17-32.17 9.7-47.25 7.53-41.94-6-31.06-57.46-29.57-86.9 2.93-57.72 4.05-122 33.87-173.42 14.76-25.43 36-45.77 58.28-64.6 26.95-22.79 54.67-44.74 85.14-62.67 72.4-42.61 153.11-54.54 233.27-73.79q171.15-41.12 342.22-82.55 422.8-102.12 845.62-204.2 51.1-12.31 102.23-24.54c12.65-3 25.31-6.1 38.19-8 15.71-2.26 31.61-2.8 47.27.11 16.18 3 31.31 9.57 47.71 11.75 31.72 4.2 65.79 1.14 96.39 11.92 31.51 11.1 56 39.47 76.45 64.66 11.54 14.2 22.34 29 32.66 44.12.89 1.3 3.76 6.86 5.46 8.11 5.18 3.79 4.3 2.66 11-.2 10.56-4.5 21.52-7.48 32.18-11.6 28.06-10.85 52.15-32.88 80.64-44.65 29.87-12.33 62-18.51 94.31-16.69 36.37 2 70.5 14.85 104.51 26.91q47.29 16.77 93.87 35.48c31.59 12.78 64.9 25.16 89.28 49.94 4.9 5 9.78 13.74 15.53 16.53 4.69 2.28 12.16 2.33 17.37 3.77 13.72 3.8 26.92 9.31 39.9 15.1 22.41 10 44.28 21.07 66.76 30.89 58.05 25.39 116.77 49.28 175.36 73.4 67.88 27.94 135.86 55.65 203.65 83.8 44.52 18.48 91.41 35.46 132.15 61.65 52.8 33.94 94.26 87.94 131.87 137.21 21.07 27.6 40.83 56.17 62 83.71 18.45 24 32.33 48.31 41.59 77.41 10.69 33.6 14.39 68.67 19.28 103.44 5 35.66 11.42 72.86 8.82 109-1.75 24.22-10.55 43.44-33 53.87-15.71 7.28-32 13.44-48.1 19.88-37 14.86-74.11 29.93-111.66 43.46-2 .71-3.92 1.44-5.9 2.1-2.67.89-8.18 1.76-10.24 3.1-9.3 6.1-2.19-1.75-4.22 6-1.7 6.49-1.06 14-3 20.86-4.79 17-9.89 33.84-14.83 50.76-3.87 13.22-11.46 29-12.51 42.79-.7 9.31 6.06 27.48 9.22 36.56 3.35 9.65 12.8 14.95 20.32 22.06 44 41.61 65.88 104.11 73 162.94 8 66.08 3.38 138.47-19.05 201.42-24.23 68-74.12 124.85-129.35 169.85q-9.19 7.49-18.66 14.61c-4.69 3.53-17.48 9.81-20 14.54-1.1 2.11-.86 6.24-1.18 8.54l-6.78 49.17-8.2 59.47c-1.55 11.24-5.76 24.92-5 36.29.65 9.71 4.52 19.1 4.52 29.61 0 14.49-1 29.28-5.3 43.19-7.33 23.46-25.25 41.66-37.9 62.23-9.77 15.88-22.67 34.24-23.93 53.54-1.84 28.26.75 52.51-16.73 77.21-18.75 26.49-50 42.26-76.3 60-29.82 20.15-59.49 40.87-90.81 58.65-7.36 4.18-24 8.72-27.52 15.13-2.54 4.61-1 16.29-1.28 21.41-1 15.86-1 32.09-2.87 47.86-1.52 12.63-6.46 21.76-16.67 29.47-7.32 5.53-8.22 4.08-9.09 12.78-1.6 15.94 1.2 33.24-3.6 48.72-18.23 58.84-85.31 90.47-141.8 96.67-63.23 6.94-140-4.8-186.29-52.16-6.35 11.2-16.11 19.42-27.2 25.66-12.52 7-17.33 7-18.54 22.19-1.55 19.46-1.54 31.58-17.83 45.26-4.6 3.86-9.22 8-14.1 11.53-10.4 7.44-23 8.63-34.48 13.67-12.87 5.66-27.4 9.9-41.57 8.57-13.59-1.27-23.35-8.71-36.83-8.37-20.47.52-38.92-2-58.25 6.14q-25.43 10.66-50.92 21.17-59.69 24.56-119.49 48.86-50.76 20.67-101.56 41.24c-15.48 6.26-30.95 13.14-47.22 17-23.84 5.71-48.1 3-71.88-1.55-74.57-14.3-148.62-38.53-220.95-61.31-12.53-3.95-19.87.24-32.32 4.71q-23.28 8.37-46.51 16.89-47.13 17.24-94.18 34.68c-29.29 10.82-58.55 21.71-87.92 32.28-23.56 8.65-48.24 18.57-73.64 18.57zM325.11 1722.36l-110.84-42.55m134.23-11.66l39.82 165.07m-99.67-413.12l23.9 99.04m81.27 337.2l6.27 24.6m6.96 27.34l25.72 112.54" class="a"/><path d="M1209.19 1071.44c0 23.72-74.4 23.24-87.66 23.24-13.58 0-87.27.61-87.66-23.24m337.01-399.04l224.53 315.82M489.01 404.46l114.67 33.85m159.2-31.74L1622.94 180m-105.82 471.57l1185.11-357.74M1538.26 673.9l854.67-252.51m48.39-17.29l62-18.32M1800.38 840.1l1185.1-357.74M1821.52 862.43l854.66-252.51m37.09-10.96l285.48-84.35M1573.6 760.02l1022.11-308.53M1594.75 782.36l733.67-216.77m54.27-16.03l304.24-89.89" class="a"/></svg>