<svg xmlns="http://www.w3.org/2000/svg" viewBox="0 0 395 401.7"><path fill="none" stroke="#FFF" stroke-miterlimit="10" d="M111 331.2c-3.3-12.8-8.8-25.2-16.3-34.9-5.5-7.2-13-14-21.3-14.4 5.3-3.7 12.7-3 18.1 0 3.3 1.8 6.2 4.7 8.8 7.7 2 2.3 3.9 4.7 5.7 7.2 1 1.4 1.2 1.7 1.3 3.5.1 1.8.3 3.6.4 5.3.8 8.6 2.2 17.1 3.3 25.6-.7-2.5-1.5-11.3 0 0zm-71.9-63.3c3 9.6 4.9 21.3 2.3 31.4-1 4.2-3.1 8.3-6.6 9.7-4.2 1.8-8.6-.8-11.9-3.9 3 1 5.9-.4 8.8-1.7 2.1-.9 3.7-2.3 4.8-4.7 2.8-5.6 2.7-13.1 1.9-19.4-1-7.9-3.5-15.7-7.1-22.4-2.5-4.7-6-9.7-10.6-11.2-2.3-.7-4.3-.1-6.4 1-2.5 1.2-5.3 2.3-7 4.9.9-4.3 2.8-8.7 6.2-10.6 2-1.1 4.1-1.1 6.2-.5 2.1.6 3.8 2.1 5.6 3.6 6.6 5.6 10.9 14.6 13.8 23.8 4.4 14.3-2.9-9.3 0 0z" stroke-linecap="round" stroke-linejoin="round"/><path fill="none" stroke="#FFF" stroke-miterlimit="10" d="M29.8 266c-2.3-5.6-5.4-11-9.5-14.7-3.1-2.8-6.2-3.7-9.9-2.7 3.4-1.9 7-4.2 10.8-2.8 4 1.5 7.1 5.7 9.4 9.8 5.9 10.4 10.2 25.7 7.3 38.5-.6 2.5-1.5 5-3 6.8-1.9 2.2-4.6 3-7.1 3.9 4.6-2.2 6.1-9.2 6.3-14.7.6-8.2-1.3-16.7-4.3-24.1-5.1-12.6.7 1.6 0 0zm290 55.2l-.9 27.7c-.1 2 .2 4-.6 5.8-1.8 4.3-5.4 6.9-9.2 8-5.9 1.7-13.7 1-18.6-3.8-1.5-1.5-3.2-3.8-3.4-6.3-.3-4.2.1-8.7.2-12.9.1-5.3.2-10.6.2-15.8 0-.8-.3-2.8.6-2.9.3 0 .9.5 1.2.7.9.5 1.7.9 2.6 1.4 1.9.9 3.8 1.7 5.7 2.2 6.9 1.6 16.4 1.4 22.2-4.1zm15.9-31.1c1.8 5-4.4 8.5-7.2 10.2-4.2 2.6-8.4 5.1-12.6 7.4-4.8 2.7-9.9 5.9-15.3 6-4 0-7.8-1.7-11.3-3.9 4.8 1.4 10.9 3.6 15.8 1.2 5.2-2.6 10.4-6.9 14.2-12 1.8-2.3 1.6-4.2 1.8-7.2.3-3.6 2-6.8 4.1-9.2.5-.6 1.7-2.3 2.3-2.1.5.2 1.5 1.9 1.8 2.3 1 1.3 2.1 2.5 3.2 3.7 1.2 1 2.7 2 3.2 3.6 1.1 3-.2-.6 0 0z" stroke-linecap="round" stroke-linejoin="round"/><path fill="none" stroke="#FFF" stroke-miterlimit="10" d="M321.5 310c-3.2 1.9-6.5 4-9.8 5.7-2.7 1.3-5.7 1.8-8.6 1.9-3 .2-6.3 0-9-1.6-2.8-1.7-5.5-4.3-7.6-7.1 4 1.1 7.4 3.8 11.5 4.5 5.9 1 11.1-1.9 16.3-4.8 4.7-2.6 9.3-5.3 13.9-8.1 2.8-1.7 9.4-5.3 7.5-10.5 1.3 2.9 3.2 5.7 1.6 9.1-1.2 2.6-4.4 3.9-6.5 5.2-3.1 2-6.2 3.9-9.3 5.7-4.2 2.5 3.6-2.1 0 0z" stroke-linecap="round" stroke-linejoin="round"/><path fill="none" stroke="#FFF" stroke-miterlimit="10" d="M321.5 310c0 1.9-.1 3.8-.1 5.7 0 .9.1 2.2-.1 3.1-.4 1.7-2 2.9-3.2 3.7-5.8 3.9-13.4 4.2-19.8 2.9-3.3-.7-6.5-2.2-9.5-4-.9-.5-.6-.5-1.3.2-.7.7-1.3 1.8-1.9 2.7-.9 1.3-.7 2.8-.8 4.6-.2 4-.5 8.1-.7 12.1-.3 4.9-.6 9.8-.8 14.7-.1 1.4-.1 2.8-.9 3.9-1.1 1.4-3.1 2-4.5 2.8.6-8 .8-16.1 1.3-24.2.2-4.1.5-8.2.8-12.3l.3-4.2c.1-.8-.1-2.1.2-2.8.4-1.1 2.8-2.3 3.9-2.6 2-.4 3.8-.2 5.8-1.4.3-.1 1-.7 1.2-.7.2 0 1.1.9 1.1.9.6.4 1.1.9 1.7 1.2 1.1.6 2.3 1 3.5 1.2 2.6.5 5.2.4 7.8 0 5.9-.9 10.8-4.4 16-7.5z" stroke-linecap="round" stroke-linejoin="round"/><path fill="none" stroke="#FFF" stroke-miterlimit="10" d="M287.6 321.6c-.1 5.3-.2 10.5-.2 15.8 0 2.5.3 5.5-.1 7.9-.2.8.1.4-.4.9-.8.8-2.1 1.2-3 1.8.3-6.4.7-12.8 1.1-19.2.1-1.1-.1-2.7.2-3.7.3-1.3 1.7-2.5 2.4-3.5zm25-143.9c-.8-4.1-1.9-8.1-3-12-2-6.8-4.1-13.7-7.9-19.3-4.9-7.4-10.8-13.9-16.6-20.3-2.1-2.4-4.3-4.7-6.5-7 1.3-1.5 2.7-3.2 4.3-4.4 1.3-1 2.9-1.4 4.4-1.9 3.6-1.3 7.1-2.6 10.7-3.9 3-1.1 7.2-3.9 10.2-1.4 1.5 1.3 2.8 3 4.2 4.5 5.1 5.5 10.1 11.1 14.8 17.1 2.7 3.5 4.9 7.1 6.6 11.4 1.6 4.1 2.9 8.3 4.1 12.6.9 3.3 1.8 6.6 2.7 10 .7 2.8-.7 5-2.8 6" stroke-linecap="round" stroke-linejoin="round"/><path fill="none" stroke="#FFF" stroke-miterlimit="10" d="M256.2 137.8c-2.1-2.4-4.3-4.7-6.5-7 1.3-1.5 2.7-3.2 4.3-4.4 1.3-1 2.9-1.4 4.4-1.9 3.6-1.3 7.1-2.6 10.7-3.9 3-1.1 7.2-3.9 10.2-1.4 1.5 1.3 2.8 3 4.2 4.5 5.1 5.5 10.1 11.1 14.8 17.1 2.7 3.5 4.9 7.1 6.6 11.4 1.6 4.1 2.9 8.3 4.1 12.6.9 3.3 1.8 6.6 2.7 10 .7 2.8-.7 5-2.8 6m-25.1 8.7c-.8-4.1-1.9-8.1-3-12m3.5-147.4c3.7 1.9 7.1 3.9 9 8.5-3.5.2-7.3 2.1-10.7 3.2-.8.3-1.6.6-2.5.9-.3.1-1.7.9-2 .7-.2-.1-.5-.9-.7-1.1-1-1.5-2-2.8-3.2-4-7.7-8.7-18.4-12.4-28.7-9.3 5.3-4.6 11-8.6 17.7-7.6 3.6.5 7 2.3 10.4 3.7 3.7 1.5 7.2 3.2 10.7 5 4.3 2.2-4.8-2.5 0 0zm-62.4 3.7c6.3-2.5 14.1-2.1 20.3.7 6.4 3 11.3 9.2 14.8 16.3-2.8 1-5.7 2-8.5 3-1.6.6-3.2 1.1-4.8 1.7-1.1.4-1 .6-1.9-.2-.5-.5-1-1.3-1.5-1.8-3.4-4.1-7.3-7.9-11.7-10.3-5.5-3.1-11.5-3.4-17.3-2 3.3-3.1 6.7-5.9 10.6-7.4 2.1-.8-4.3 1.6 0 0z" stroke-linecap="round" stroke-linejoin="round"/><path fill="none" stroke="#FFF" stroke-miterlimit="10" d="M257 50.8c-4.5-8.9-10.9-15.9-19.4-17.8 6.6-4.8 14.3-6.2 21.8-4.4m-32.3 32.8c-1.2.4-2.4.9-3.7 1.3-.8.3-2.9 1.5-3.7 1.3-.7-.2-2-3-2.5-3.7-.8-1.1-1.6-2.2-2.4-3.2-2.6-3.2-5.6-6.2-8.8-8.3-4.4-2.9-9.2-4-14.1-3.9 4-1.2 8-1.9 12.1-.7m-34.2 10.6c5.5-2.3 12-2.8 17.6-.8 7.1 2.4 12.9 8.6 17.7 15.2-4.6 1.6-9.2 3.3-13.8 4.9-2.1.7-4.1 1.5-6.2 2.2-.7.3-2.4 1.2-3.2 1.1-.6-.1-.9-1.5-1.3-2.3-3.5-8-10.2-13.8-17.2-16.4 2-1.8 4.2-3 6.4-3.9 1.8-.8-.8.3 0 0z" stroke-linecap="round" stroke-linejoin="round"/><path fill="none" stroke="#FFF" stroke-miterlimit="10" d="M219.7 64c-4.8 1.7 0 0 0 0-2.7.9-5.4 1.9-8 2.8-1.3.5-2.5.9-3.8 1.4-.6.2-1.4.6-2.1.7-1 .1-.9-.1-1.7-1.1-3-4-6.4-7.7-10.2-10.4-5.4-3.9-11.3-5.1-17.5-4.4 5.9-7.3 14.2-9.5 22.2-7.6m-33.3 38c-2.4-3.9-5.3-7.6-8.4-10.6-5.9-5.8-12.8-7.4-20.3-6.5 6.1-9.2 18.2-10.9 26.9-7.6m58.4-24.9c-2.8 1.1-5.4 2.8-7.7 4.8-.9.8-1.8 2-2.8 2.6-1.3.8-3 .9-4.3 1.4" stroke-linecap="round" stroke-linejoin="round"/><path fill="none" stroke="#FFF" stroke-miterlimit="10" d="M148.3 67.1c6.9 2 12.9 9.4 17 16.3-5.1 1.8-10.1 3.6-15.2 5.5-4.5 1.7-8 4.7-11.1 9-3.7-6-7.3-14.2-13.9-15.8-5.1-1.2-10.1 2.5-12.5 8-.5-2.3-.5-5 0-7.3 1.1-5 5.3-7 8.4-9.7 7.7-6.7 18.2-8.7 27.3-6 8.8 2.6-4.1-1.2 0 0zm58.6-53.3l-14 4.2c-11.2 3.4-22.4 6.7-33.6 10.1-13.5 4.1-27.1 8.1-40.6 12.2-11.7 3.5-23.4 7-35.2 10.6-3.9 1.2-7.8 2.3-11.6 3.5-1.2.4-2.4.7-3.6 1.1-.5.2-1.5.2-1.9.6-.1 0-.2.1-.2.1 1.7.2 3.4.3 5.1.5m0-.2l132.2-39.6M48.2 90.7c2.8 1.1 5.7 2.2 8.5 3.3-3.2 1.4-7.4 3.3-8.9 7.4-1.4 3.7-1.4 8.2-1.7 12.1-2.2-1.2-4.3-2.4-6.5-3.6-3.1-1.7-4.3-5.9-4.2-9.9.1-3.9 1.8-7.9 4.8-9.4 2.5-1.3 5.5-.8 8 .1 3.9 1.5-4-1.5 0 0zM107 296.8c-.1-1.8-2.7-4.2-3.6-5.4-2.7-3.3-5.5-6.6-8.7-9.1-1.4-1.1-3-2.3-4.7-2.8-2.3-.7-5-.4-7.4-.7-2.5-.4-4.3-.8-6.7.5-1.3.7-2.6 1.6-3.8 2.7 1.4 0 1.9-.4 3.1-1 1.8-.8 3.7-1.2 5.5-1.4 2.9-.2 6 .3 8.8 1.4 7.2 3 12.7 10.7 17.6 17.5 0-.6-.1-1.1-.1-1.7 0-.2 0 .6 0 0zm-24.8 59.9c4.1 6.6 10.1 13.6 17.2 14.3-8.4 11.4-20.9-1.7-26.3-10.5-8.1-13.1-13.9-32.5-10.4-48.9 1.7-8 6.6-14.4 13.8-12.7-5.8 6.2-6 17.8-5 26.4 1.3 11.3 5.1 22.4 10.7 31.4 5.3 8.5-2.6-4.1 0 0z" stroke-linecap="round" stroke-linejoin="round"/><path fill="none" stroke="#FFF" stroke-miterlimit="10" d="M85.2 357.2c-1.9 3.5-6-6.1-6.8-7.6-2.3-4.8-4-10-5.3-15.4-1.2-4.9-1.9-10-2-15.1 0-1.8 0-10.3 3.1-8.2-.9 2.1-.9 4.9-1 7.2 0 3.9.4 7.9 1.1 11.7 1.9 10.1 5.4 19.7 10.9 27.4-.6 1.1-11.7-16.7 0 0z" stroke-linecap="round" stroke-linejoin="round"/><path fill="none" stroke="#FFF" stroke-miterlimit="10" d="M81.5 335.5c1.1 3.4 2.5 6.7 3.5 10.2 1 3.3 2 8.3.2 11.6-5.4-7.7-9-17.4-10.7-27.3-.7-3.8-1.1-7.8-1.1-11.7 0-2.3 0-5.1 1-7.2 1.3.9 2 3.4 2.7 4.9.9 2.1 1.9 4.2 2.5 6.4 1 4.2.5 8.8 1.9 13.1 1 3.5-1.1-3.4 0 0z" stroke-linecap="round" stroke-linejoin="round"/><path fill="none" stroke="#FFF" stroke-miterlimit="10" d="M99.5 328.2c0 .1.1.3.1.4-1.6-4.6-4.6-10-8.7-11.3-4-1.2-6.1 3.3-6.4 7.7-.4 6.2 1.7 12.8 5 17.4 2.1 3 5.9 6.6 9.2 4 4.2-3.4 2.8-12.4 1.2-17.1 2.5 7.5 4.1 15.7 4 23.8 0-.5-1.6.7-1.7.8-1.2 1-2.2 2.5-2.8 4.1-.9 2.2-1 4.7-.6 7.1.1.8 1.2 5.2 2.3 3.2-.5 1.1-1.1 2.5-2 2.6-.8.1-1.8-.4-2.5-.6-1.7-.6-3.3-1.6-4.9-2.8-3.7-2.8-6.8-6.7-9.4-10.9 4.1 4.9 3.9-6.2 3.2-9-1-4.5-3-8.6-4.2-13-.8-2.9-1-5.9-1.3-8.9-.2-3.2-1.2-5.9-2.4-8.6-.8-1.8-1.8-5.7-3.5-6.4-2-.9-2.7 2.6-2.9 4.3.3-5.1 1.3-10.6 4-14.6.7-1 1-1.7 2.1-1.5.7.1 1.4.5 2.1.8 1.6.8 3.1 1.8 4.5 2.9 7.1 6.3 12.2 15.9 15.6 25.6.1.1-5.6-16.1 0 0z" stroke-linecap="round" stroke-linejoin="round"/><path fill="none" stroke="#FFF" stroke-miterlimit="10" d="M98.6 362.1c.1-3 1.3-5.9 3.2-7.7.3-.3 1.3-1.4 1.8-1.2.8.2.3 2.8.2 3.7-.3 3.5-.8 8.5-2.6 11.3-1.9 2.8-2.6-4.9-2.6-6.1.2-6.6-.1 4.4 0 0z" stroke-linecap="round" stroke-linejoin="round"/><path fill="none" stroke="#FFF" stroke-miterlimit="10" d="M99.5 371c3.9-5.3 4.6-13.2 4.4-20.1-.2-7.8-1.9-15.6-4.4-22.8-3.9-11.4-11-24.7-21.1-28.7-4.8-1.9-9.8-.5-12.9 4.6-2.8 4.7-3.7 11-3.7 16.7-.1 14.8 4.9 30.3 12.5 41.6 5.6 8.3 17.3 19.4 25.2 8.7.5-.8-1.1 1.5 0 0zm2.8-44.3c3 8.8 5 18.4 5 28 0 7-1 14.9-4.7 20.5-7.4 11.2-19.2 4.1-26.1-3.9-10.5-12.3-17.1-31-17.9-48.7-.6-12.1 2.7-30.2 15.2-29.5 5.9.3 11.2 4.7 15.4 9.6 5.7 6.5 10 15 13.1 24 8.2 23.6-8.1-23.6 0 0z" stroke-linecap="round" stroke-linejoin="round"/><path fill="none" stroke="#FFF" stroke-miterlimit="10" d="M100.4 389.6c-12.5 5.8-25.2-9-32-20.3-5.4-9-9.4-19.2-12-29.9-2.7-11.3-4.1-23.6-2.2-35.2 1.3-8.2 4.7-16.8 11.3-20.2 5.2-2.7 11-1.2 15.9 1.8 14.3 8.9 23.6 29 28.2 47.3 2.9 11.4 4.3 24 2.4 35.9-1.3 8.5-4.7 17.3-11.6 20.6-13.2 6.2.1 0 0 0zm-2.7-9.8c11.8-6.2 10.5-28.2 8-40.6-3.2-16.2-10.8-33.7-22.7-42.4-4-2.9-8.8-4.8-13.4-3.2-5 1.7-8.1 7.2-9.6 13-4.4 16.9.8 37.1 8.1 51.6 3.7 7.4 8.5 14.4 14.6 18.9 4.4 3.3 10 5.3 15 2.7 10.7-5.7-10.7 5.7 0 0z" stroke-linecap="round" stroke-linejoin="round"/><path fill="none" stroke="#FFF" stroke-miterlimit="10" d="M73.3 281.9c12.8.6 23.3 15.3 29.6 27.7 8.5 17 13.8 39 10.3 58.9-1.5 8.9-5.4 18.2-12.9 21.1 6.3-3 9.7-10.5 11.3-18.2 2.1-10.2 1.4-21.1-.5-31.3-3.7-20-12.8-41.6-27.3-52.7-5.4-4.1-12.2-6.7-18.4-3.5 2.5-1.4 5.2-2.1 7.9-2 12.7.7-.4 0 0 0z" stroke-linecap="round" stroke-linejoin="round"/><path fill="none" stroke="#FFF" stroke-miterlimit="10" d="M112.3 383c-2.3 2-5.1 3.7-8 4.3 9-7.5 10.3-23.4 9.9-35.7-.3-10.7-1.8-21.4-3.1-31.9-.4-3.3-.8-6.6-1.3-9.8 1.1 3.4 2.6 6.7 4.5 9.5.7 1.1 1.6 2.2 2.4 3.1.8.9 2.3 1.6 3 2.6.6.8.5 3.2.6 4.3l.6 6c1 10.6 1.6 21.8-.5 32.2-1.2 6.4-3.8 11.5-8.1 15.4-4.1 3.4 0 0 0 0z" stroke-linecap="round" stroke-linejoin="round"/><path fill="none" stroke="#FFF" stroke-miterlimit="10" d="M118.8 377.3c2.8-2.7 5.1-6 6.5-10.1 2.1-5.8 2.3-12.1 2.3-18.4 0-5.4-.1-10.9-.7-16.3-.1-1.4-.3-2.9-.5-4.3-.1-.4-.5-1.5-.4-1.9.1-.4 1.2-.8 1.6-1 1.3-.6 2.6-1.3 3.9-1.9 1.1 6.3 1.7 12.8 1.8 19.3.1 8.8-.6 18.5-4.6 26-2.3 4.4-5.8 7.4-9.9 8.6 5-4.9.8-.2 0 0z" stroke-linecap="round" stroke-linejoin="round"/><path fill="none" stroke="#FFF" stroke-miterlimit="10" d="M126.1 326.2c1.9 8.1 1.7 17.3 1.6 25.7-.1 6.5-.9 13.2-3.8 18.8-2.8 5.4-7.3 8.8-11.5 12.3 8.1-6.9 9.4-19.4 9.5-30.7 0-9.1-1-18-1.8-27 1.7 1.1 4 1.7 6 .9zm-.7-24.4c1.6 4.7 3 14.5-2 17-4.9 2.5-9.4-5.3-11-9.9-1.7-4.7-3.3-15.1 2.1-17.5 4.9-2.2 9.3 5.7 10.9 10.4 2.3 7-2.6-7.5 0 0z" stroke-linecap="round" stroke-linejoin="round"/><path fill="none" stroke="#FFF" stroke-miterlimit="10" d="M129.3 299.2c1.5 4.4 2.4 10.7.1 14.9-1.2 2.1-3.6 3.1-5.4 4.3 4.6-3.7 2.7-13.5.7-18.3-1.7-4.2-6-10.9-10.5-8.6 1.9-1.3 4-3.3 6.3-3 4.3.7 7.3 6.2 8.8 10.7 2.6 7.5-2.5-7.5 0 0zm-88.4-147c1.3 5.3 2.1 13.2-1.2 17.7-3 4-7.2 1.2-9.6-2.1-3.6-4.9-5.5-12.1-5.3-18.7.1-4.5 1.7-11.1 6.2-10.7 5.2.4 8.6 8.4 9.9 13.8 2.3 9.1-2.3-9.2 0 0z" stroke-linecap="round" stroke-linejoin="round"/><path fill="none" stroke="#FFF" stroke-miterlimit="10" d="M37.5 171.6c4.4-1.7 4.8-9.4 4.3-14-.6-6.2-2.8-13.2-6.9-17.1-3.2-3-7.1-2.7-9 2-2.3 5.8-1.1 13.4 1 19.1 1.6 4.4 5.7 11.8 10.6 10 4.2-1.6-4.2 1.6 0 0zm4-20c1.6 6.4 2.6 16.1-1.6 21.4-3.6 4.7-8.7 1.1-11.5-2.9-4.3-6-6.5-14.8-6.3-22.8.2-5.3 2.2-13.1 7.6-12.4 6.3.7 10.2 10.3 11.8 16.7 2.8 11-2.7-11 0 0z" stroke-linecap="round" stroke-linejoin="round"/><path fill="none" stroke="#FFF" stroke-miterlimit="10" d="M38.8 189.1l7.5 38.7 10.8 55.8c.4 2.1 1.2 4.5 1.3 6.6.1 1.3-.6 1.8-1.2 3.1-2 4.4-3.1 9.3-3.6 14.3-3-15.8-6-31.6-9.1-47.4l-14.4-75.4-3.3-17.1c1.3 2.4 3 4.7 5.1 6.2.9.6 1.8 1.1 2.8 1.3.7.1 1.4-.2 1.8.4.7 1.2-.1 3.8 0 5 0 1.5.3 3.1.7 4.5.2.8.5 1.7.8 2.5.3.3.8 1.1.8 1.5zm50.5 42.1c2.2 8.7 3.1 21.6-2.7 28.7-5.1 6.2-12.2 1.8-16.3-3.7-5.8-7.9-8.8-19.5-8.2-30.1.4-7.6 3.6-17.6 11.1-16.8 8.4.9 13.9 13 16.1 21.9 3.7 14.6-3.6-14.6 0 0z" stroke-linecap="round" stroke-linejoin="round"/><path fill="none" stroke="#FFF" stroke-miterlimit="10" d="M96.8 228.3c3.5 13.8 4.9 34.2-4.2 45.4-8.1 10-19.3 3.2-25.8-5.6-9.2-12.5-14.1-30.9-13.2-47.7.6-12.1 5.6-28.1 17.5-26.9 5.7.6 10.8 5.1 14.6 10.2 5.3 6.9 8.9 15.6 11.1 24.6 5.8 23.1-5.7-23.2 0 0zm-13.7 34.2c7.4-2.8 8.4-15.4 7.6-23.3-.9-10-4.7-21.2-11.6-27.1-5.5-4.7-12-3.4-15.1 4.2-3.8 9.4-1.9 21.7 1.6 30.8 2.9 7.6 9.6 18.4 17.5 15.4 7.1-2.7-7.1 2.7 0 0zm108.7 43.1c.1 1 .3 2.5-.5 3.2-1.3 1-2.7-1.3-3.8-1.8-.6-.3-1.4 0-2-.3-.7-.3-1.4-1.4-2-2-1.8-1.8-4.3-3.6-5.5-6.1-.9-1.9-1.6-4-2.4-5.9-.6-1.4-.6-2.1-.6-3.8v-4.6c0-1.6-.4-3.8-.1-5.3.3-1.2 1-2.3 1.2-3.7.1-.9.1-2.4.5-3.1 1.5-2.5 4.6 3.6 5.3 4.9 4.7 8.6 8.3 18.5 9.9 28.5.1 1-.1-.2 0 0zm-5 14.4c5.2 1.7 3 9.8.7 13.4-2.7 4.1-7.9 8-12.2 5.5-1.5-.9-2.5-2.4-2.9-4.3-.4-1.8.2-3.8-.6-5.5-.5-1.1-.6-.8-.4-2.3.3-2.8.6-6.1 1.9-8.4 1.4-2.6 3.3-3.2 5.6-1.8 1.1.7 2.1 1.6 3.3 2.3 1.6.8 3.1.6 4.6 1.1 2.5.9-.3-.1 0 0zm-15.9 11.4c-1.2-.8-2.4-1.7-3.6-2.5-.8-.6-1.7-1.1-2.4-1.8-.8-.8-1.2-1.9-2.1-2.8 1.6 1.2 3.2 2.4 4.7 3.6 1.1.8 3.1 1.8 3.4 3.5-.2-.1-.1-.7 0 0z" stroke-linecap="round" stroke-linejoin="round"/><path fill="none" stroke="#FFF" stroke-miterlimit="10" d="M176.3 315.6c-2.7 1.1-3.8 4.2-4.3 7.4-.2 1.4-.7 3.3-.6 4.8.1.7.1.4.3 1 .7 2.1.3 4.4 1 6.6 1 2.9 3.2 4.3 5.7 4.4-2.2.2-5-.3-6.5-2.6-1.1-1.8-.6-3.5-1-5.5-.1-.7-.5-1.1-.7-1.6-.3-.9 0-2 .1-3.1.2-1.9.5-3.8.9-5.6.7-3.2 2.1-6.1 5.1-5.8-1.8.7-.9-.1 0 0zm10.9-7.3c0 3.8.3 8-.3 11.7-.7-.3-2.1.1-2.4-.7-.1-.4.1-1.5.1-1.9.1-1.7.1-3.3.2-5 0-1.1-.2-2.6.1-3.7 0-.1-.1-.6 0-.7.2-.4 1.9.1 2.3.3z" stroke-linecap="round" stroke-linejoin="round"/><path fill="none" stroke="#FFF" stroke-miterlimit="10" d="M187 344.1c4.4-6.1 5.9-14.7 6.1-22.6.2-9.9-1.6-19.8-4.5-29-3-9.1-7.2-17.7-12.7-24.7-4.5-5.7-10.3-10.8-16.9-11.9-13.8-2.4-19.6 15.2-19.8 29.3-.2 18.2 5.8 37.3 15.6 50.8 7.6 10.6 22.4 21.5 32.2 8.1 5.7-8-1.6 2.1 0 0zm2.6-53.2c3.4 10.2 5.4 21.4 5 32.5-.3 8.3-2 17.2-6.6 23.5-9.1 12.7-23.1 6.1-31.8-3.6-12.3-13.8-19.9-35.4-20.2-55.8-.2-15 4.9-35 19.6-34.8 7 .1 13.5 4.9 18.6 10.5 6.8 7.5 11.9 17.3 15.4 27.7 9.1 27.1-9.1-27.1 0 0z" stroke-linecap="round" stroke-linejoin="round"/><path fill="none" stroke="#FFF" stroke-miterlimit="10" d="M189.6 290.9c-5.3-15.8-15.6-33.8-30-37.6-5.5-1.5-11.3 0-15.5 4.7-5 5.6-7.2 14.2-7.8 22.3-1.7 20.6 5.1 42.9 16.2 58.2 7.6 10.5 21.2 21.3 32.4 11.8 6.2-5.3 8.8-14.9 9.6-23.7.9-12-1.2-24.5-4.9-35.7-9.1-27.1 9.1 27.1 0 0z" stroke-linecap="round" stroke-linejoin="round"/><path fill="none" stroke="#FFF" stroke-miterlimit="10" d="M150.5 291.6c-1.7.4-.2 8.5 0 9.6.8 4.3 2.4 8.3 3.9 12.2 1.5 3.7 3 7.4 4.9 10.8.7 1.3 2.6 5.2 4.3 4.7-2.8 2.1-5.7-4-6.9-6.3-2.2-4.2-4.1-8.7-5.6-13.4-.7-1.9-5.9-18.5-.6-17.6z" stroke-linecap="round" stroke-linejoin="round"/><path fill="none" stroke="#FFF" stroke-miterlimit="10" d="M151 291.8c1 .7.5 2 .9 2.9.2.5 1.1 1.1 1.4 1.5 1.5 1.5 3 3.1 4.5 4.6.6.6.6.6.8 1.5.5 2.3.8 4.4 2 6.5.5.9 2 2.1 2.2 3 .2.5 0 1.6 0 2.2 0 1.5 0 3-.1 4.5v3.3c0 .5-.1 1.2 0 1.7.1 1.1.4 1.1.9 2 .6.9 1.1 3.2-.3 3.6-.6.2-1.3-.6-1.7-1.1-1.7-1.8-2.9-4.4-4-6.7-1.6-3.2-3-6.6-4.3-10-1.4-3.8-2.8-7.7-3.3-11.9 0-1.1-.9-8.8 1-7.6.8.5-.1-.1 0 0zm17.4-24.4c.1 1.3-.1 2.6-.7 3.8-.3.6-1 1.1-1.3 1.6-.5 1.2-.5 3.6-.7 5-.3 1.8-.3 3.9-.8 5.6-.5 2-2.8 4.1-4.5 4-1.1 0-2.2-1.1-3.1-1.9-.8-.6-1.9-1.1-2.5-1.9-.2-.3-.3-.6-.5-1-.7-1.3-1.6-2.1-2.4-3.2-3.8-5.4 1.1-11.3 4.4-14.6 2.2-2.2 4.6-3.7 7.5-3 2.4.6 4.5 2.5 4.6 5.6.1 1.5-.2-4 0 0z" stroke-linecap="round" stroke-linejoin="round"/><path fill="none" stroke="#FFF" stroke-miterlimit="10" d="M154.7 283.6c1.7 1.3 3.4 2.6 5.2 3.8-1-.1-2-.9-2.9-1.4-1.2-.6-3.7-1.4-4.4-2.6-.2-.3-.2-1.1-.4-1.5-.3-.6-.7-1.1-1-1.7-.8-1.4-1.6-2.7-1.7-4.5-.5-6.4 6.8-13 11.4-13.9-2.2.8-4.1 2.7-5.7 4.6-1.6 1.8-3.6 4-4.2 6.7-.5 2.2 0 4.6 1.1 6.3.9 1.5 2.2 2.3 2.6 4.2zm11.2 19.3c.6 1.9 1.2 5.9-.9 6.8-1.9.7-3.6-2.4-4.2-4.2-.6-1.8-1.2-5.7.7-6.7 2-1 3.8 2.3 4.4 4.1 1 3-1-3 0 0zm23.1 5.2c.8.8 2.3 1.6 2.8 0-.8 3.7-3.3.8-4.8.2-1.1-.4-1.9 0-2.9-.8-.9-.7-1.6-1.6-2.4-2.4-1.9-2-4.4-3.8-5.6-6.6-1-2.3-2.4-4.6-2.4-7.2 0-3.8-.1-7.5-.1-11.3 0-.4-.1-1.2 0-1.6.2-.7.9-1.5 1.2-2.2.7-1.8.6-6.4 3.3-4.4-1.8-.8-1.7 2.5-1.9 3.8-.2 1.2-.7 2-1.1 3.1-.3 1-.1 2.6-.1 3.8 0 3.1-.6 7.2.5 10 .7 1.6 1.3 3.2 2 4.9.8 1.9 1.3 2.6 2.8 4.1 1.5 1.6 3.2 3.8 4.9 5 1.1.7 2.5.3 3.8 1.6 1.6 1.7-1.7-1.8 0 0z" stroke-linecap="round" stroke-linejoin="round"/><path fill="none" stroke="#FFF" stroke-miterlimit="10" d="M163.9 293c-.9.5-1.3 2.2-2.1 2.4.6-3.2 2.6-5.6 5.3-4.8 2.8.9 5 4.2 6.2 7.3 1.4 3.4 2.2 8 .9 11.6-1.3 3.8-4.4 4.3-7 2.2.8-.6 2 .4 3-.1.8-.4 1.3-1.2 1.6-2.1 1-2.4.6-5.5 0-8-.8-3.3-4.1-10.4-7.9-8.5-.7.4 2.4-1.2 0 0zm10.8-16.8c-.1.3-.8 2.2-1.2 2.2-.4 0-2.5-2.4-3-2.7-1.3-1.1-2.7-2.1-4.1-3 .5-.4 1-1.7 1.4-1.9.6-.2 2.1 1.1 2.6 1.4 1.5 1 3.3 2.3 4.3 4z" stroke-linecap="round" stroke-linejoin="round"/><path fill="none" stroke="#FFF" stroke-miterlimit="10" d="M184.8 308.1c-.1 3.9-.1 7.8-.4 11.6-3.5-.8-7.2-6.4-10.9-3.2-3 2.5-3.1 9.4-3.6 13.3-1-.8-2.1-1.6-3.1-2.4-1.1-.8-3.7-2.1-4-3.5-.4-1.4 0-3.5 0-5v-7.2c1 .8 2 1.1 3.2.7.9-.3.8-.5 1.6-.2 2 .7 3.8 1.7 5.5-.5 3.1-4 1.3-11.5-.8-15.6-1.7-3.3-5.7-7.8-8.9-4.5-.8.8-1.2 1.8-1.5 3-.4 1.2-.3.9-1.2 1.5-1.8 1.1-2.3 3.4-2.2 5.7-2-2.1-4.3-4-6.2-6.4-.2-.3-.5-.4-.6-.7-.4-1 .1-3.3.2-4.4.1-2.2.3-4.4.5-6.6 3.5 1.9 9.2 6.6 12.1.7.8-1.7.8-4.4 1.1-6.4.2-1.8.5-3.5.7-5.3 1.7 1.1 3.4 2.3 5 3.7 1.7 1.4 2.1 1.6 2.1 3.9 0 3.8-.4 8.1.1 11.9.1 1 .5 1.8.9 2.7.6 1.5 1.2 3.5 2 4.9.8 1.2 2 2.2 3 3.1 2 1.8 3.6 3.6 5.4 5.2z" stroke-linecap="round" stroke-linejoin="round"/><path fill="none" stroke="#FFF" stroke-miterlimit="10" d="M167.2 302.2c.9 2.7 1.8 8.3-.9 10-3.2 2-6.2-3.9-7-6.8-.8-2.7-1.4-8.5 1.7-9.5 2.8-.9 5.3 3.6 6.2 6.3 1.5 4.5-1.5-4.5 0 0zm-30.1-146.7c0 1.6-1.4 2.5-2.5 2.3-1.1-.2-2.2-1.2-3.3-.9 1.3-.5 3.8-1.4 3.8-3.5.7.3 1.9.9 2 2.1 0 0 0-.1 0 0z" stroke-linecap="round" stroke-linejoin="round"/><path fill="none" stroke="#FFF" stroke-miterlimit="10" d="M137.1 155.8c.1 1.8.4 4.2 0 6-.2.9-1.1 2.4-1.9 2.5 0-1.5-.1-3-.1-4.5 0-.3-.2-1.6 0-1.9-.1.2 1-.4.9-.3.5-.3 1.1-1.3 1.1-2.1v.3c0 .5 0-.1 0 0z" stroke-linecap="round" stroke-linejoin="round"/><path fill="none" stroke="#FFF" stroke-miterlimit="10" d="M135.2 164.3c-1.1.1-2.4-1.2-3.4-.5l-.3-7.1c.6 0 1.2.3 1.7.5.3.1 1.7.3 1.9.6.1.2 0 1.3 0 1.6 0 1.7.1 3.3.1 4.9z" stroke-linecap="round" stroke-linejoin="round"/><path fill="none" stroke="#FFF" stroke-miterlimit="10" d="M129.8 166.3c-.2.2-.4.4-.6.4 0-1.8-.4-4-.1-5.8.2-1.2 1.2-3.9 2.4-4.1.1 1.5.1 3.1.2 4.6 0 .6.2 1.6.1 2.2-.2.8-1.4 2.1-2 2.7-.2.2.8-.9 0 0z" stroke-linecap="round" stroke-linejoin="round"/><path fill="none" stroke="#FFF" stroke-miterlimit="10" d="M129.2 166.7c-1.5.6-3.4.2-4.9.2-.4 0-1.6.3-1.9-.1-.3-.3 0-.1-.2-.6-.4-1.6 0-4.1 0-5.8 1.1.5 2.6.1 3.7.1.7 0 2.5.3 3.2-.2 0 2.1 0 4.3.1 6.4z" stroke-linecap="round" stroke-linejoin="round"/><path fill="none" stroke="#FFF" stroke-miterlimit="10" d="M122.2 160.4c-1.1-.5-1.6-2.4-2.9-2.6 3.9.5 8.1.4 11.9-1-1.6.7-1.1 3.4-3.1 3.5-1.7.2-4.3.9-5.9.1-1.2-.6.2.1 0 0zm-6.1 5c-.2 0-.4 0-.6.1v-4.8c0-.6-.1-1.1.2-1.5.5-.7 2.7-1.4 3.4-1.4v7.5c-1-.1-2-.1-3 .1-.2.1 1.1-.3 0 0z" stroke-linecap="round" stroke-linejoin="round"/><path fill="none" stroke="#FFF" stroke-miterlimit="10" d="M119.1 165.4v-7.5c1-.1 2.1 1.5 2.7 2.3.5.7.4.4.4 1.5v5.1c-1.2-.3-1.9-1.4-3.1-1.4z" stroke-linecap="round" stroke-linejoin="round"/><path fill="none" stroke="#FFF" stroke-miterlimit="10" d="M115.5 159.3c-.9.2-2.7-1.1-3.5-1.6-.5-.3-1-.3-1-1.2 0-.6 1-1.3.7-2 1.6 2.5 5.4 3 7.7 3.3-1.5-.1-2.6 1.2-3.9 1.5-.2 0 .8-.2 0 0zm-4.2-7c0 .7-.1 1.5.3 2.2-.4-.5-1.7-.1-1.8-.7-.2-.7 1.1-1.8 1.6-1.8-.1.1-.1.2-.1.3z" stroke-linecap="round" stroke-linejoin="round"/><path fill="none" stroke="#FFF" stroke-miterlimit="10" d="M111.6 154.6c.2.4-.7 2.3-.7 2.9-.1.8.2 4.4-1 3.4-1-.9-.2-5.7-.2-7.1 0 .6 1.6.3 1.9.8.2.5 0 0 0 0z" stroke-linecap="round" stroke-linejoin="round"/><path fill="none" stroke="#FFF" stroke-miterlimit="10" d="M115.5 159.3v6.2c-1.1 0-4.4-1.2-4.8-2.6-.4-1.6.1-4.3.2-6 .1.8 3.9 2.5 4.6 2.4zm-19.7 5.4c2.2-1.1 4.4-2.1 6.6-3.2-1.7 1.4-2 3.2-2 5.5" stroke-linecap="round" stroke-linejoin="round"/><path fill="none" stroke="#FFF" stroke-miterlimit="10" d="M126.5 215.5c0 2.4.4 5.8-.7 8-.9 1.9-3 3-4.5 4.1-2.8 2-5.6 4.1-8.4 6.3-1.7 1.4-3.5 3-5.5 3.7-1.6.5-4.6.9-6.1-.1-1.2-.9-1-3-1-4.6V213c0-15.1-.1-30.2 0-45.3 0-1-.2-2.7.7-3.2.9-.5 2.5.6 3.3 1 2 1 3.9 2.2 5.9 3.2 3.2 1.7 6.4 3.3 9.6 4.8 1.8.8 4.4 1.7 5.7 3.7.9 1.4.7 3.4.7 5.1 0 2.7 0 5.3.1 8 .1 8.3.2 16.7.2 25.2zm-5.7 103.7c1.4 2.1 7.3 6.1 9.1 2.9-2.8 6-8.2 5-12.2 1.4-3.8-3.5-6.4-8.8-8.1-14.2-1.9-5.8-2.9-12.6-1.7-18.8 1.1-5.7 4.8-9.8 9.7-7.7-2.9-.9-5 2.9-5.5 6-.3 1.7.2 3.6-.2 5.1-.6 2-1.1 3.5-1.2 5.7-.1 7.3 3.6 18.2 10.1 19.6z" stroke-linecap="round" stroke-linejoin="round"/><path fill="none" stroke="#FFF" stroke-miterlimit="10" d="M129.5 299.6c-.6-2-2.2-5.4-3.8-7.4-1.4-1.8-3.4-3.5-5.5-3.6-1.5-.1-2.6.8-3.8 1.6-1.4.9-3.2 1.7-4.1 3.4-1.1-5.2 1.8-13.1 6.8-9.9 5 3 8.4 9.6 10.4 15.9 0 0-2.8-8.6 0 0zm0 .1c2 6.3 3.5 15.3.7 21.7-1.7 4-7.8.3-9.4-2.2 1.8.4 3.1-.7 4.6-1.7 1.1-.7 2.4-1.3 3.3-2.3 3.2-3.7 2.2-11 .8-15.5z" stroke-linecap="round" stroke-linejoin="round"/><path fill="none" stroke="#FFF" stroke-miterlimit="10" d="M134.5 283.4c-.3 6.7.4 13.5 1.6 20.1-3.1-6.9-6.4-14.1-11-19.7-2.9-3.5-6.7-6.2-10.8-4.8 3.1-1.6 6.5-3.4 9.9-3.2 4.2.2 7.6 3.7 10.3 7.6-.3 6.2-7.6-10.9 0 0z" stroke-linecap="round" stroke-linejoin="round"/><path fill="none" stroke="#FFF" stroke-miterlimit="10" d="M136.1 303.4c-3.2-7.1-6.6-14.7-11.5-20.3-3.4-3.9-7.4-5.8-11.8-3.4-5.3 2.9-5.8 10.8-5.7 17.1.2 9 1.6 17.9 2.9 26.8 1.5 10.4 4.1 20.4 4.3 31 .3-7-.8-14.4-1.5-21.3-.8-7.1-1.6-14.2-2.6-21.3-.4-3-1.4-5.7-2-8.7-1-5.4-1.3-12.3 1.3-17.1 1.6-2.9 4.3-4.2 7.1-4.6 3-.4 5.4 1.4 7.5 4 3.9 4.8 6.7 11 9.8 16.5 1.1 1.9 2.2 3.8 3.2 5.8-.4-1.6-.7-3-1-4.5-7.8-17.2.3 1.5 0 0z" stroke-linecap="round" stroke-linejoin="round"/><path fill="none" stroke="#FFF" stroke-miterlimit="10" d="M140.4 319.1c-4.6 2.2-9.1 4.6-13.7 6.8 3.1-1.7 4.4-6.2 4.8-10.2.6-5.8-.5-11.9-2.4-17.3-2.4-6.8-8.5-18.5-15.8-16 2.5-.9 4.9-1.6 7.4-.1 4.4 2.7 7.1 9 9.8 13.8 2 3.5 3.9 7 5.9 10.5.4.7.6 1.1.8 2 1 3.5 2 7.1 3.2 10.5zm71.6-99.3c1.7 6.7 2 15-1.1 21.2-3.2 6.5-9.4 7.1-14.3 2.9 2.3.6 5.5-.5 7.7-1.6 1.9-1 3.4-3 4.4-5.3 2.4-5.8 1.8-13-.2-18.8-1.7-5-5-10.4-9.5-11.6-2.3-.6-4.2.3-6.3 1.5-1.7 1-3.5 2-4.7 3.8 1.7-7 6.7-11.9 12.7-9.2 5.8 2.6 9.6 10.1 11.3 17.1 3.1 12.2-3-12.1 0 0z" stroke-linecap="round" stroke-linejoin="round"/><path fill="none" stroke="#FFF" stroke-miterlimit="10" d="M190.5 209.5c3.2-2.2 6.5-4.1 10.1-2.2 3.9 2.1 6.6 6.9 8.2 11.6 1.7 5.3 2.2 11.7.4 17.1-1.8 5.3-5.3 6.9-9.5 7.9 7.2-2.2 6.5-15.5 4.6-21.9-1.9-6.3-7.4-16.1-13.8-12.5.1-.1.2-.2 0 0z" stroke-linecap="round" stroke-linejoin="round"/><path fill="none" stroke="#FFF" stroke-miterlimit="10" d="M200.1 241.7c4.4-1.7 5.2-9 4.7-13.9-.5-5.8-2.8-12.3-6.9-15.7-3.3-2.7-7.2-2-9.1 2.5-2.4 5.5-1.4 12.9.8 18.3 1.8 4.5 5.9 10.5 10.5 8.8 4.3-1.7-4.3 1.6 0 0zm4.4-18.7c1.4 5.7 1.8 13.5-1.6 18.3-3.4 4.8-8.6 2.6-11.7-1.5-4-5.2-6.1-13.1-5.5-20.2.5-5.4 3.1-11.6 8.2-10.8 5.5.9 9.1 8.3 10.6 14.2 2.4 9.6-2.4-9.5 0 0z" stroke-linecap="round" stroke-linejoin="round"/><path fill="none" stroke="#FFF" stroke-miterlimit="10" d="M195.3 221.8c-3.6-.6-2.5 8.8.8 9.2 3.8.4 2.4-8.7-.8-9.2-.2 0 1.2.2 0 0zm8.8 1.4c1.3 5.2 1.7 12.9-1.9 16.9-3.1 3.5-7.3 1.2-9.8-2.1-3.4-4.5-5.2-11.3-4.9-17.4.3-4.7 2.3-10.6 6.8-10.2 5.1.5 8.5 7.5 9.8 12.8 2.1 8.5-2.2-8.6 0 0z" stroke-linecap="round" stroke-linejoin="round"/><path fill="none" stroke="#FFF" stroke-miterlimit="10" d="M194.6 221.9c.2-.1.5-.1.7-.1-1.9 2.3-.4 8.1 2.2 8.5-2.8 3.6-6.9-6.9-2.9-8.4.2-.1-1.3.5 0 0z" stroke-linecap="round" stroke-linejoin="round"/><path fill="none" stroke="#FFF" stroke-miterlimit="10" d="M198.1 225.5c.3 1.1.6 4.6-.8 4.8-1.2.2-2.4-2.5-2.6-3.6-.2-1-.6-4.4.6-4.9 1.3-.5 2.6 2.7 2.8 3.7.5 1.9-.5-2.1 0 0zm24.3 147.1c.7.5.5 3.4.5 4.2.1 2.4 0 4.8 0 7.2-.1 2.6.6 6.1-2.2 6-3.5-.1-7.2-1.6-10.5-2.7-3.9-1.2-7.8-2.5-11.8-3.8-2.4-.8-4.9-1.6-7.3-2.5 5.4-2.3 11.1-3.7 16.6-5.3 3.2-.9 6.3-1.8 9.5-2.5 1.2-.3 4.1-1.4 5.2-.6.9.6-1.6-1.1 0 0z" stroke-linecap="round" stroke-linejoin="round"/><path fill="none" stroke="#FFF" stroke-miterlimit="10" d="M222.8 388c-.2 3.7-4.8 1.6-6.6 1.1-3.1-.8-6.2-1.9-9.3-2.9-5.2-1.7-10.5-3.4-15.7-5.2 6.1-2.6 12.6-4.2 18.8-5.9 3.2-.9 6.4-1.8 9.6-2.4.6-.1 2-.6 2.6-.2.7.4.6 1.6.7 2.4.3 4.4.1 8.8-.1 13.1-.1 1.7.1-1.7 0 0zM44.6 193.3c-3.2 1.2-5.8-3.7-6.9-6.7-1.1-3.1-2.4-14.2 3.1-12.1-2.4 2.3-1.7 7.5-.8 10.5.9 3.1 2.6 6.8 5.3 7.8-.1.1-.4.4-.7.5z" stroke-linecap="round" stroke-linejoin="round"/><path fill="none" stroke="#FFF" stroke-miterlimit="10" d="M45.9 192.1c-1.7 2.7-5.3-5.2-5.8-6.7-.6-2.1-1-4.3-.9-6.6.1-1.3.7-4.9 2.1-4.1-2.9 5 .4 15 4.6 17.4-.1.2-1.8-1 0 0z" stroke-linecap="round" stroke-linejoin="round"/><path fill="none" stroke="#FFF" stroke-miterlimit="10" d="M46.1 181.8c.6 1.9.9 3.9.9 5.9 0 .8-.2 4.1-1 4.4-.7.2-2.2-2.1-2.6-2.6-.9-1.3-1.6-2.9-2-4.5-.7-2.3-1.9-7.8-.1-9.8 1.3-1.6 4.4 5.4 4.8 6.6 1.3 4.2-1.1-3.4 0 0z" stroke-linecap="round" stroke-linejoin="round"/><path fill="none" stroke="#FFF" stroke-miterlimit="10" d="M45.9 192.1c1.9-3.1 1-8.1-.2-11.3-1-2.8-3.8-7.7-6.8-6.3 1.2-.7 2.5-2 3.9-2 2.9-.1 5.1 4.2 6.1 7 1.2 3.2 2.3 8.4.4 11.6-1 1.7-3.1 1.8-4.6 2.2.4-.2.9-.8 1.2-1.2 1.3-2.1-.1.2 0 0z" stroke-linecap="round" stroke-linejoin="round"/><path fill="none" stroke="#FFF" stroke-miterlimit="10" d="M42.5 172.5c2.7-.8 5.5-1.6 8.2-2.6 1.1-.4 2-1 3.2-.7 2.4.8 4.1 4 5 6.7 1 3 1.6 7.2.3 10.2-.7 1.8-1.8 2.1-3.2 2.7-2.7 1-5.3 2.3-7.9 3.4" stroke-linecap="round" stroke-linejoin="round"/><path fill="none" stroke="#FFF" stroke-miterlimit="10" d="M58.9 188.2c-.6.3-1.4.5-2.1.3 4.3-1 3-9.6 1.9-12.9-1.4-3.9-3.9-7.5-7.4-5.9 2.8-4.9 7 1 8.3 4.3 1.3 3.4 3.2 12.1-.7 14.2z" stroke-linecap="round" stroke-linejoin="round"/><path fill="none" stroke="#FFF" stroke-miterlimit="10" d="M67.7 184.6c-2.9 1.2-5.9 2.4-8.8 3.6 5.6-3.2.7-21.6-5.3-20.2 2.1-.6 4.2-1.3 6.3-1.9 1.6-.5 3.3-1.2 4.9-1.5 4.1-.6 6.4 6.4 6.9 10.4.3 2.3.3 5.1-.8 7.1-.8 1.6-1.9 2-3.2 2.5zm-4.2-87c2.9-.7 5 .5 7.3 2.6 1.6 1.5 3.1 3.2 4.6 4.8 1.6 1.8 3.9 2.7 5.9 3.7-1.6-2.5-3.2-5.1-4.9-7.5-1.4-2.1-4.4-2.9-6.4-4-3.4-1.8-7-4.9-10.8-4-2.7.6-5.3 2.2-7.7 3.8-2.3 1.5-3.6 3.5-4.3 6.6-1 4.6-1.1 9.7-1.4 14.5l-.9 15.1c-.2 3.3-1.1 6.4 1.9 7.9 2.5 1.3 5.3 1.7 8 2.3 3.4.7 6.9 1.4 10.3 2.2 1.2.3 5.7.6 6 1.7m127 173.3c2.2-14 5.3-28 8-41.9 1.8-9.5 3.7-19 5.5-28.5 1.7-9.1 4.1-18.4 2.4-27.8-1.7-9.4-8.3-23.7-17.7-20.5 2.6-1 5.3-1.9 8-2.8 1.5-.5 3-1.1 4.5-.7 3.3.9 6.4 3.9 8.6 6.9 6.9 9.7 5.7 22.3 3.7 33.9-4 23.2-8.9 46.3-13.5 69.4-1 5.1-2.1 10.3-3.2 15.4-1.1 5-2.2 10-4.4 14.5-3.1 6.4-8 9.2-13.3 12 1.6-1.5 3-2.8 4.3-4.9 4-7.2 5.8-16.5 7.1-25z" stroke-linecap="round" stroke-linejoin="round"/><path fill="none" stroke="#FFF" stroke-miterlimit="10" d="M202.1 289.7c-.3 1.3-.5 2.7-.8 4-1.8-8.3-5.2-16.4-9.1-23.4-5.9-10.5-15.1-22.1-26.3-21.7-1.9.1-3.7.5-5.6 1.2-.8.3-1.6.7-2.4 1.1-1.2.6-1.8.6-3.2.6 6.4-7.1 16.3-5.7 23.2-.9 9.7 6.7 16.5 18.2 21.2 30.4 1.2 2.8 2.2 5.7 3 8.7zM55.6 208.2c-.3 1-.6 2.1-.8 3.1-.9-3.8-1.7-7.7-2.6-11.5l-1.5-6.8c-.4-1.9-.5-1.7 1.1-2.4 1.3 5.9 2.5 11.7 3.8 17.6-.3 1-.1-.2 0 0zm-9.5-94.6c-.6 7.1-.9 14.3-1.4 21.4-.8-1.1-2.1-1.9-2.5-3.2-.4-1.2-.5-3-.6-4.3-.3-2.9-.4-5.9-.4-8.8.1-2.1.1-4.3.6-6.2.4-1.6.8-.8 1.9-.2.8.4 1.7.7 2.4 1.3-.5 5.3-.1-.1 0 0zm-3.9 41.2c1.2 5.5 2.5 11 3.7 16.6-1.2.4-2.5.7-3.7 1.2-.5.2-3.3 2.1-3.4 1.7 0 0 1.8-2.3 2-2.7.7-1.4 1.2-2.9 1.5-4.5.8-4 .6-8.3-.1-12.3z" stroke-linecap="round" stroke-linejoin="round"/><path fill="none" stroke="#FFF" stroke-miterlimit="10" d="M29.1 133.4c1.2 0 2.1-.2 3.3.3 1.4.6 2.7 1.6 3.8 2.8 2.5 2.7 4.4 6.3 5.7 10.1 1.1 3.1 1.7 6.4 2.4 9.6 1.1 4.9 2.2 9.8 3.2 14.7-.3.1-1.5.7-1.7.5-.1-.1-.1-.7-.2-.9-.6-1.5-.8-3.4-1.1-5-.8-3.5-1.6-6.9-2.3-10.4-1.2-5.8-2.9-11.5-6.4-15.9-2.9-3.7-7.8-6.5-11.1-1.7 1.1-1.9 2.6-3.5 4.4-4.1 0 0-1.5.5 0 0z" stroke-linecap="round" stroke-linejoin="round"/><path fill="none" stroke="#FFF" stroke-miterlimit="10" d="M52.3 154.3c1 4.4 1.9 8.8 2.8 13.2-.5.2-1.1.3-1.6.5-1 .4-1.5 1.2-2.3 1.8-.7.5-2.5 1.1-3.2 1-.1 0-.4.2-.5.1-.3-.2-.5-2.3-.6-2.6-.4-1.6-.7-3.3-1.1-4.9-.7-3-1.3-6-2-9-1.1-4.9-2.3-9.5-4.7-13.7-2.2-3.8-6-8.4-10.1-7.3 1.4-.5 2.8-1 4.1-1.5 1.9-.7 3.9-1.6 5.9-1.1 1.9.4 3.5 1.8 4.8 3.3 1.3 1.5 0 3.2.6 4.9.5 1.4 2 2 3 2.4 1.7.7 2.5 4.3 3.1 6.4.9 2.2 1.3 4.4 1.8 6.5.7 3.3 0-.2 0 0zm7.1 33.7c.4 2.2.9 4.3 1.3 6.5.1.6.7 2.2.6 2.9-.1.5-1.3 1.5-1.6 1.9-.6.8-1.1 1.6-1.6 2.5-1.1 2-1.9 4.2-2.6 6.5-1.1-5.4-2.3-10.8-3.5-16.3-.3-1.5-.3-1.3.7-1.7.9-.4 1.8-.8 2.6-1.1 1.4-.7 2.8-.6 4.1-1.2zm35.8-21.5c-3.6 4.5-8.7 5.3-13 2.2-4.4-3.2-7.3-9-9.1-14.7-3.7-11.6-4.4-29.3 3.5-38.8 4.5-5.4 10.7-4.6 15.2.4-4.1 1.2-7.6 5.8-9.5 10.2-.7 1.5-1 3.1-1.8 4.5-.5.9-1.2 1.5-1.7 2.4-1.4 2.5-.8 4.7.6 6.8.6 1 1.4 1.9 1.8 3 .5 1.4.6 3.1.9 4.5.6 3.2 1.6 6.3 3 9.1 2.2 4.8 5.6 9.1 10.1 10.4-1.8 2.2-6.5-1.8 0 0z" stroke-linecap="round" stroke-linejoin="round"/><path fill="none" stroke="#FFF" stroke-miterlimit="10" d="M100.9 143.6c.2 6.8-.8 14.1-3.8 19.9-6.3-5.9-9.1-16.5-9.6-25.9 4.5 1.8 9 4 13.4 6 .2 7.8-2.3-1.1 0 0z" stroke-linecap="round" stroke-linejoin="round"/><path fill="none" stroke="#FFF" stroke-miterlimit="10" d="M92.2 116c-1.1 1.8-2 3.8-2.7 5.9-.8 2.5-.9 5.2-1.7 7.7-.6 1.9-1.9 3-2 5.3 0 .6 0 1.4.3 1.9.1.2.3.3.4.5.9.7.7-.1 1 1.3.3 1.2.2 2.9.4 4.2.2 1.1.4 2.2.6 3.4.5 2.4 1.2 4.8 2.1 7.1.8 2 1.7 3.9 2.8 5.7.5.7.9 1.5 1.4 2.1.5.7 1.5 1.4 1.9 2.2.4.7.2.6-.2 1.2-.1.2-.5.1-.6.3-.1.1.1.5 0 .6-.6.9-.5 1.1-1.5.9-.7-.1-1.6-.7-2.2-1.1-3-1.9-5.3-5.1-7-8.6-.9-1.9-1.7-3.8-2.3-5.9-.7-2.4-.9-4.9-1.5-7.3-.9-3.6-4.4-5-3.1-9.4.5-1.8 1.9-2.8 2.6-4.5 1.1-2.5 1.8-4.9 3.3-7.1 1.1-1.7 2.5-3.3 3.9-4.5.8-.8 3.2-3 4.1-1.9-2.3 3.5-.2-.2 0 0z" stroke-linecap="round" stroke-linejoin="round"/><path fill="none" stroke="#FFF" stroke-miterlimit="10" d="M87.5 137.6c-2-.8-2.1-2.6-1.3-4.9.3-.9 1-2.7 1.8-2.6.6.1 1.6 1.1 2.1 1.4 2.3 1.3 4.6 2.4 7 3.4.6.3 1.3.6 1.9.9 1.2.5 1.4.5 1.5 2 .2 1.9.4 3.8.4 5.8-4.4-2-8.9-4.2-13.4-6-.2 0 2.8 1.1 0 0z" stroke-linecap="round" stroke-linejoin="round"/><path fill="none" stroke="#FFF" stroke-miterlimit="10" d="M100.3 136.4c-4.2-1.9-8.8-3.5-12.6-6.5.5-5 1.9-10 4.4-14 4.6 5.4 7.1 13.1 8.2 20.5-6.2-2.8-1.3-8.7 0 0zm10.8 144.4c-.9.7-.5.6-1.4 0-.4-.3-.7-.7-1.1-1-.9-.8-1.9-1.5-2.9-2.2-1.2-.8-2.3-1.6-3.5-2.2.9-.5.7-.4 1.5-.2s1.6 1 2.3 1.4c1.7 1.1 3.7 2.4 5.1 4.2-.3.2-2.1-2.7 0 0z" stroke-linecap="round" stroke-linejoin="round"/><path fill="none" stroke="#FFF" stroke-miterlimit="10" d="M110.4 281.5c-3.1 3.6-3.4 9.8-3.3 14.7-1.9-2.7-3.9-5.3-6-7.7-3.3-3.8-7.3-8-11.8-9.2 2.5-.1 5-.5 7.4-1.4 1.1-.4 2.2-.9 3.3-1.4.7-.3 1.7-1.2 2.4-1.1 1.1.2 2.5 1.5 3.4 2.2 1.6 1.1 3.2 2.3 4.6 3.9-2.6 3-2.6-3 0 0zm3.7-46.2c1.5 9.9.8 21.4-3.9 30-.6 1-.8 1.2-1.8 1.9-2.9 2-5.8 3.9-8.7 5.7-3.8 2.3-8.4 5.2-12.7 5.1 11.8-4.5 13.3-24.5 12.1-37-1.5-15.9-7.6-33.7-18.6-43-4.6-3.9-10.4-6-15.7-3.2 5.3-3.6 11.6-6.5 17.6-7.4 3.2-.5 6.6-.2 9.6 1.5.3.2.9.4 1.1.7.8.8.4.3.6 1.3.2 1 .1 2.5.1 3.5 0 1.2 0 2.5.1 3.7.1 1.9.5 3.6 1.6 5.1.8 1.2 1.8 2.2 2.8 3.1.5.4 2 1.2 2.2 1.8.4 1 0 3.4 0 4.5v20.8c0 2.9.3 4.5 2.9 4.6 3.6.1 7.3-1 10.7-2.7 2.9 19.6-1.5.8 0 0z" stroke-linecap="round" stroke-linejoin="round"/><path fill="none" stroke="#FFF" stroke-miterlimit="10" d="M189.1 208.6c-.7 1.6-.9 3.7-2.1 4.9-.4.4-.9.7-1.3 1-1.9 1.4-3.7 2.8-5.6 4.2l-19.8 14.7c-14.6 10.8-29.3 21.7-44 32.4-9.3 6.8-18.8 14.3-30.1 13.5m92.3-64.6l12.7-9.7c-.9 1-1.6 2.3-2.1 3.6m-43 31.6l4.1-3.2m-18.1 14l11.2-8.4m17.2-14l11.2-8.4m-61.8 46.4l20.2-13.9m-45.7-143c3.4-1 6.4-2.4 9.8-1.1 3.8 1.5 7 4.7 9.3 8.6 4 6.6 5.8 15.2 6.3 23.2.4 5.5.1 11.4-1.7 16.6-.8 2.2-1.7 2.1-3.6 3.1-1.9 1-3.6 2.1-5.5 3 5.1-10.5 4.6-24.7 1.1-35.7-1.6-4.9-3.8-9.6-7.1-13-1.3-1.4-2.8-2.6-4.4-3.4-.7-.4-1.5-.7-2.3-.8-.8-.2-1.9 0-2.6-.3.2 0 .4-.1.7-.2 1.2-.4-.4.1 0 0z" stroke-linecap="round" stroke-linejoin="round"/><path fill="none" stroke="#FFF" stroke-miterlimit="10" d="M109.7 153.6c-.3.6-.1 2.1-.1 2.8 0 .2 0 1.2-.1 1.4-.3.4-1.7.8-2.1 1 3.4-6.6 2.9-16.3 1.8-23.5-.1-1-.3-1.9-.5-2.9-.1-.4-.5-1.8.2-1.4.2.1.7 2.5.9 2.8.2.5.6 1.1 1 1.5.6.5.9.3 1.2 1 .2.4.2 1.4.2 1.9.1 1.5.1 3 .1 4.5 0 2.4-.2 4.8-.4 7.2 0 .4 0 1-.1 1.4-.6 1-1.6 1.1-2.1 2.3 0 0 .3-.8 0 0z" stroke-linecap="round" stroke-linejoin="round"/><path fill="none" stroke="#FFF" stroke-miterlimit="10" d="M109.7 124.8c-.9.4-1 1.9-1.1 2.9 0 .7.6 3.3-.1 3.3-1.6-8.2-5.2-16.6-11.4-20.8-1.6-1.1-3.4-2-5.3-2.2-2.5-.3-5.1 1-7.4 1.7 9.1-9.8 21.9 4.4 25.3 15.1-1.3.7-2.6-8.1 0 0zm40.6 115.9c.7-.5 1.4-1.1 2.1-1.6m5.9 9.4c-1.4.9-2.5 1.8-3 2.4m-15.2-2.7c3.3-2.5 6.8-5 10.2-7.5m5 10.2c-1.1 1.1-3.5.7-4.9 1.2-1.9.6-3.6 1.5-5.2 2.8m10.3-87.3c-.7-4.6-2.9-6.2-5.1-7.3" stroke-linecap="round" stroke-linejoin="round"/><path fill="none" stroke="#FFF" stroke-miterlimit="10" d="M160.2 160.9c-6.5-10.7-12.9-21.4-19.4-32.1-3.4-5.6-6.8-11.2-10.3-16.7-2.1-3.3-4.9-5.5-7.8-7.6-5.2-3.8-10.6-7.6-16.2-10.6-1.9-1.1-3.3-1.5-5.4-1.1-3 .6-5.9 1.6-8.8 2.5-2.9.9-5.9 1.8-8.8 3.1-2.3 1-4 3.3-5.3 5.8-.7-1.1-1.6-3.4-2.7-4 1.5-3 4.2-4.5 6.8-5.6 3.8-1.6 7.7-2.7 11.5-4.1 3.5-1.2 7.1-2.6 10.8-2.3 3.5.2 6.5 2.4 9.5 4.4 5.5 3.5 11.1 7.1 16.1 11.6.8.7 1.6 1.4 2.2 2.3.7 1 .4 1.6.7 2.7.5 1.5 1.7 2.7 2.6 3.8 1.1 1.3 2.2 2.6 3.2 4 3.6 5 6.6 11 9.8 16.4 4.9 8.2 9.7 16.4 14.6 24.7.9 1.5 1.8 3.6 3 4.7 1.1 1 2.7 1 4 1 3.6-.1 7.1-1.4 10.5-2.7l-5.8 5.5m.1.1c-6.5 6.1-13 12.1-19.6 18.1.1-5.5.8-11.8-.1-17.3m47.7 79.3c5 .1 8.3-5.1 9.5-10.7-1 5.3-2.1 10.6-3.1 16m-.7 3.5l-.6 3.3m-.7 3.2l-4.4 23.1m-5.5-40.5c1.6 1.2 3.5 2 5.5 2.1m-13.1-8.6c1.1 1.7 2.4 3.3 3.9 4.4 1.2.9 2.6 1.3 3.8 2.2m-10.5-31.4c-1.4 3.1-1.8 6.9-1.6 10.4-.4-2.3-.7-4.7-1-7-.1-1.1-.3-1 .4-1.7.3-.3.8-.6 1.1-.8.4-.4.7-.7 1.1-.9-1.2 2.6 0 0 0 0zm12.8-38.3c-1.1 1-1.3 2.5-2.4 3.4-.9.7-1.9 1.7-2.6 2.7-.1-1.2-.5-3.3-.2-4.4.1-.3.8-1 1-1.1.8-.5.2-.2 1 .1 1.2.3 2.1 0 3.2-.7-.8.7-1.7 1.1 0 0zm19.5-16.9c-.4-.2-1.6-.6-1.9-1-.1-.2-.2-1.2-.3-1.4-.2-.9-.6-1.7-1.1-2.5-1-1.6-2.4-2.6-4-2.6-2.7.1-5.9 2.1-8.4 3.2-2.7 1.2-5.5 2.3-8.2 3.5-.5.2-1.3.8-1.8.8-1.2 0-3-1.1-4.2-1.7 5.1-2.4 10.1-4.8 15.2-7.1 1.9-.9 2.9-.9 5-.8 2.4.2 4.9.2 6.8 2.2 1.8 1.9 2.5 4.7 2.9 7.4-.6-.3-.7-5.6 0 0z" stroke-linecap="round" stroke-linejoin="round"/><path fill="none" stroke="#FFF" stroke-miterlimit="10" d="M183 156.3c1.1-.9 2.6-1.5 3.9-2.1 2.6-1.2 5.2-2.4 7.9-3.6 3.7-1.7 7.5-3.7 11.4-4.8 2.9-.8 6.2-.2 9.2 0 3.4.3 7.1-.2 9.4 3.5 1.6 2.6 3.5 11.6-1.4 10.7-.6-.1-1.3-.7-1.9-1-.4-.2-1.6-.6-1.8-1-.2-.3-.2-1.4-.3-1.9-.5-2.2-1.4-4.4-2.9-5.7-1.4-1.3-3-1.6-4.7-1.8-1.5-.1-3.2-.5-4.6-.3-1.1.2-2.4 1-3.4 1.5-4.6 2.2-9.3 4.4-13.9 6.5 2.1 1 4.2 1.4 6 3.1 2.1 2.1 3 4.8 2.9 8.1-.1 3.7-1.3 6.6-3.7 8.8-1.2 1.1-2.5 1.8-3.5 3.3-2.1 3.1-2.8 7.5-3.1 11.4-.3 3.2-.3 6.4-.3 9.7 0 1 0 2.1.1 3.1 0 .7.4 2.8.1 3.4-.3.5-1.4 1.1-1.8 1.4-.7.6-1.5 1.1-2.2 1.7-1-10.8-2.2-25.6 6.2-32.6 2.2-1.9 4.5-3.2 4.7-6.9.2-4.6-1.3-9.6-5-11.2-1.5-.6-3-.7-4.5-1-1.6.2-4.2-.5-2.8-2.3.9-.7 0 0 0 0z" stroke-linecap="round" stroke-linejoin="round"/><path fill="none" stroke="#FFF" stroke-miterlimit="10" d="M226.1 153.1c3.3.2 6.5 2.5 8.6 5.5-1.8.5-3.5 1.2-5.2 1.8-.9.3-2.3 1.3-3.2 1.3-.9-.1-2.3-1.1-3.2-1.6 3.3 1.1 3.7-4.4 3-7zm.2 89.2c1 1.5 1.3 2.3.1 3.6-1 1-2.1 2-3.3 2.7-.9.5-2.1 1.2-3.1.4-1.4-1.2 0-4.8.3-6.5 1.7 3.3 4.1 2.2 6-.2z" stroke-linecap="round" stroke-linejoin="round"/><path fill="none" stroke="#FFF" stroke-miterlimit="10" d="M221.7 236.4c1 1.8 2.6 3.2 3.8 4.8 1 1.3 1.1 1.2-.1 2.2-.7.6-1.5 1.3-2.3 1.3-.9.1-2-.6-2.4-1.7-.5-1.2.2-5.6 1-6.6z" stroke-linecap="round" stroke-linejoin="round"/><path fill="none" stroke="#FFF" stroke-miterlimit="10" d="M222.5 234.5c-.3.8-.7 1.6-1.1 2.3 1.8-11 2.3-22.7-4.2-31.7-1.8-2.5-4.1-4.7-6.6-6-2.9-1.5-5.2-.5-8.2.5 5.9-6.6 13.7-.2 17.3 6.5 4.2 8 6.2 19.6 2.8 28.4-.3.7.2-.5 0 0zm7.1-23.3c.8 2.9 1.1 5.6-2 4.8-1.7-.5-2.6-1.7-3-3.7-.3-1.4-.3-8.4 1.6-8.4 1.4-.2 3.1 6 3.4 7.3.6 2.1-.3-1.4 0 0z" stroke-linecap="round" stroke-linejoin="round"/><path fill="none" stroke="#FFF" stroke-miterlimit="10" d="M229.3 216.2c-.8.9-.8 1.1-1.8 1.2-1 0-2 0-2.9-.2-.7-.1-1-.2-1.3-.8-.3-.7-.4-1.9-.6-2.6-.3-1.1-.7-2.2-1.1-3.2-.5-1.2-1.4-2.6-1.2-3.8.3-1.6 1.5-3.3 2.1-4.7.6-1.3 1-2.7 2.3-1.6 1.2.9 1.8 3.1 2.4 4.5-1.9-4.2-3 5.6-2.6 7.3.6 2.9 2.3 3.7 4.7 3.9-.2.3-3.9-.3 0 0zm.4 16.1c0 1.1.3 4.9-1.2 4.6-1.1-.3-2.6-3.3-3.3-4.3-.8-1.2-1.6-1.8-1.4-3.4.4-3 .4-6 .1-9 .6 0 1.3-.1 1.9-.2-.4 2.7-.7 6 .6 8.4.9 1.6 2.3 2.5 3.3 3.9 0 1-2.3-3 0 0z" stroke-linecap="round" stroke-linejoin="round"/><path fill="none" stroke="#FFF" stroke-miterlimit="10" d="M229.7 222.6c.1 3.2 0 6.5 0 9.7-1.6-2.1-3.6-3.2-4.1-6.3-.2-1-.2-2-.1-3 0-.7 0-1.6.2-2.2.3-.9 0-.7.8-.9 1.5-.4 3.2.6 3.2 2.7.1 2.7 0-2.9 0 0zm19.9-41.5c.7 2.2-1 2.9-1.7.8-.7-2.2 1-2.9 1.7-.8.3 1-.3-1 0 0zm-28.6 16c1.6 2.7-.8 6-1.9 8.3-.4-.6-1.9-2.3-2-2.9-.1-.6 1.2-2.6 1.5-3.2.4-1 1.5-3.8 2.4-2.2 1.2 1.8-1.1-1.9 0 0zm-7.6-19.4c-.2 1-.4 7.2-1.5 6.9-.4-.1-.4-3.4-.4-3.9.2-1.6.8-2.4 1.9-3-.2 1.7-.2.1 0 0zm1.9-3.9c-1.2 1.2-1.3 3.4-2.5 4.3m7.2-3.2c.2-.1 1.9-1.1 2.1-.6.1.1-2.1 1.7-2.3 1.8-.9.9-1.6 2.1-2 3.4m-.8 0c.1.8.5.6.7 0-.5 1.5-.7 3.2-1 4.8-.2 1.1-.4 2.1-1.1.6-1-2.1 0-4.5 1.4-5.4.2.8-.8.6 0 0zm4 3.2c1.1.8 1.4.6 1.1 2.1-.2.9-.4 1.9-.7 2.8-.3 1.1-.4 1.9-1.3 1.2-1.6-1.3-.8-5.5.9-6.1 1.4 1.1-1.7.6 0 0z" stroke-linecap="round" stroke-linejoin="round"/><path fill="none" stroke="#FFF" stroke-miterlimit="10" d="M223.2 175.6c1.6-.7 3.1-1.7 4.7-.6 2.4 1.6.9 2.5-.8 3.6 1.8-.7-1.2-1.1-1.7-1.1-1.7.3-3.6 1.3-4.3 3.4-.1.4-.1 1.1-.2 1.4-.2.4-.5.4-.8.7-.6.6-.6 1-.7 2-.2 2-.2 3.3 1.4 4.1m-18-3c-.6.6-1.6-2.5-1.6-2.9-.3-1.4 0-1.6 1-2.1.3 1.7.6 3.4.6 5-.3.4 0-1.1 0 0zm-2.3 3.3c-.8.6-2.8-4-3-4.5-1.2-2.7-1.7-5.4 1-7-.2 1.3.2 2.6.5 3.8.3 1 .3 1.1.2 1.9-.1.3-.3.5-.3.8-.2.8 1.8 4.8 1.6 5-.8.6.1-.1 0 0zm7.4 1.4c-1.2.5-2.5 1.2-3.4 2.3-1.5 1.7.1 3 1.2 4.3-.7.3-1.4.6-2 1.1-.3.2-.6.7-.9.8-.6.3-.2.5-.9-.2-1-1-1.9-3.1-1.2-4.6.9-1.9 5.6-5.8 7.2-3.7z" stroke-linecap="round" stroke-linejoin="round"/><path fill="none" stroke="#FFF" stroke-miterlimit="10" d="M207.9 190.8c1.1 1.4 1 4.3 1 6.1-.7-.1-1.3-.1-2 .1-1 .2-1 .5-1.7-.1-.6-.5-1.5-1.7-1.4-2.6.2-1.7 2.9-3 4.1-3.5zm11.5 2.8c0 .4-.1.7-.3.7-.6-1.9-6.2-6.4-6.2-2.8 0 1.6.4 4.6 1 6.1.5 1.1 1.6 2.1 2.6 2.5-.2.3-.3.7-.5 1-1.4-1.5-2.8-2.3-4.4-3.3-1-.6-.8-.7-1-2.1l-.3-2.8c-.2-1.7-.9-5.7 1.2-5.7 1.1-.1 10 4.1 7.9 6.4-.2.2 0 0 0 0z" stroke-linecap="round" stroke-linejoin="round"/><path fill="none" stroke="#FFF" stroke-miterlimit="10" d="M219 194.2c-.6 1.4-1.3 2.8-1.9 4.2-.5 1-.4 1.4-1.1 1.3-.7-.1-1.8-1.5-2.2-2.3-.4-.9-.5-2.1-.6-3.2-.2-1.7-1.3-4.7 1-4.2 1.9.6 4.2 2 4.8 4.2zm-9.5-16.3c0 1 .5 7.8-1 6.3-.6-.5-.6-3.5-.6-4.3.1-1.2.6-1.9 1.6-2zm-3.7 1.3c.1 1.3.3 2.7.2 4.1 0 1.4-.4 1.7-1 .4-.8-1.8-1.2-4.1.8-4.5z" stroke-linecap="round" stroke-linejoin="round"/><path fill="none" stroke="#FFF" stroke-miterlimit="10" d="M205.6 177.8c.1 1.1 1.1 7.7-.4 7.8-1.4.1-1.8-4.6-1.9-5.7-.4-3.1-.8-5.2 1.5-7.1 1.7-1.5 3.9-2.5 6-3.1-1.6.8-3.6 1.8-4.7 3.7-.7 1.4-.6 2.9-.5 4.4.1.4-.2-2.7 0 0zm22.8-14c1.2-.6 2.8 0 4 .4 2.6.9 5.1 2.4 7.5 3.9-1.2.7-2.5 1.3-3.7 2-.5.2-2.7 1.2-2.4 1.7m-.1 0c.8 1.2 2.1 1.8 3.1 2.9.2.3.7.8.7 1.2 0 .7-1.4 1.1-2 1.4" stroke-linecap="round" stroke-linejoin="round"/><path fill="none" stroke="#FFF" stroke-miterlimit="10" d="M238.4 173.8c1.4 1 2.9 2.1 3.7 3.8.3.6 1.2 3.4.5 3.7.2-1.7-.7-4.1-1.8-5-1.2-1.1-2.1-.6-3.3 0-.2-1.1-.8-1.6-1.5-2.2-.5-.4-2.2-1.4-2.4-2.2-.2-.9.9-.3 1.3-.1 1.3.5 2.4 1.2 3.5 2 3.8 2.6-2.5-1.7 0 0zm12.1 68.8c3.2-6.5 3.2-15.5 2.7-22.8-.8-11.7-3.8-23.7-10-32.8 1.2-.5 2.3-1 3.5-1.5.9-.4 2.9-.9 3.3-1.8 1-2-.5-4.9-2.3-4.4-.1-4.7 3.5-.6 4 1.6.3 1.5-.2 2.9.1 4.4.3 1.5 1.2 2.9 1.8 4.3 1.8 4.5 3.4 9.2 4.6 14 1.9 7.6 2.5 15.3 2 23.2-.1 1.8-.4 3.7-.5 5.5 0 .9.2 1.6.1 2.6-.1 1.7-.4 3.5-.6 5.2-.2 1.6-.2 3.3-.5 4.9-.3 1.4-.5 2.5-1.4 3.3-1.6 1.4-3.7 2.2-5.4 3.3.4-1.2.7-2.4 1.1-3.6" stroke-linecap="round" stroke-linejoin="round"/><path fill="none" stroke="#FFF" stroke-miterlimit="10" d="M242.2 166.8c4.1 2.2 7.9 4.4 10.7 8.9.7 1.2 1.5 2.5 1.7 4 .2 1.2-.5 2.6-.1 3.8.3 1 1.1 1.9 1.6 2.8.8 1.6 1.6 3.3 2.3 5.1 2.9 7.3 4.4 14.8 4.8 22.9.2 3.6.2 7.1.1 10.7-.1 2.2-.4 4.5-.3 6.7.1 3-.5 6.2-.7 9.2-.1 1.4-.3 2.5-.7 3.8-.6 1.9-2 2.3-3.5 3.2.6-2.4.9-4.6 1.2-7.1.2-2.4.8-4.8.6-7.2-.2-3.4.5-7 .6-10.5.4-13.2-3.3-25-8.1-36.4-.7-1.7-.4-2.8-.5-4.6-.1-1.7-.9-3-1.8-4.2-.4-.5-1-1.2-1.6-.8-.8.5-.3 1.6-.7 2.2-.2.3-1.4.5-1.8.7-1 .4-2 .9-3 1.3 0-2.7-1.1-4.6-2.8-6.2-1.5-1.3-4.3-3.8-6.3-3.7 2.7-1.6 5.5-3.1 8.3-4.6zm-24.6-9.6l-5.3-2.8M200 175.1c1.5-1 3.1-2 4.7-2.9 1.2-.7 2.9-1.3 3.9-2.4 1.7-1.8-1.4-3.1-2.5-3.7-1.1-.6-3.4-2.1-4 .1-.1-2.4-.8-4.6-2.1-6.5 3.4 1.7 6.7 3.4 10.1 5.1 2.1 1.1 4.3 2.1 6.4 3.2 1 .5 5.3 2 3 3.3" stroke-linecap="round" stroke-linejoin="round"/><path fill="none" stroke="#FFF" stroke-miterlimit="10" d="M154.7 401.7c-3.9 0-7.5-2.8-10.9-4.8-4.2-2.5-8.4-5.1-12.7-7.6-2.6-1.6-5.2-3.1-7.8-4.7-.9-.5-1.7-1-2.6-1.6-.7-.4-.7-.4-1.4 0s-1.3 1.1-1.9 1.6c-1.9 1.6-3.9 3.4-6 4.7-1.9 1.2-3.8 1.7-5.7 2.7-2.8 1.4-5.1 3.1-8.2 3.6-2.7.5-5.5.2-8.2-.5-5.7-1.7-10.9-5.7-15.3-10.4-8.8-9.4-15.2-22.1-19.4-35.4-1.3-4-2.1-8.1-3.2-12.1-.5-1.8-2-3.3-2.9-4.9-.8-1.5-1.5-3.1-2.1-4.7-.9-2.7-1.5-5.5-1.7-8.4-.1-1.3 0-2.5 0-3.7 0-1.9-.4-3.8-.4-5.7-1 .4-2 .7-3 1.1-1.6.6-2.8 1.7-4.3 2.6-4.8 2.6-10.1 1-14.4-2.2-1.9-1.4-3.9-2.4-5.8-3.8-2.3-1.7-4.3-4-6-6.5-3.4-4.8-6-10.4-7.8-16.4-1.9-6.2-3.1-13-3-19.7 0-2.7.3-5.3.8-7.9.2-1.2.5-2.4.9-3.5.5-1.4 1.4-2.7 1.9-4.1.7-2.2-.7-4.5-.6-6.6 0-2 1.6-2.7 2.9-3.5 3.1-2.1 6.5-3.6 9.9-5 3.7-1.6 7.5-3 11.3-4.3 1.4-.5 2.7-.9 4.1-1.4.5-.2 1.4-.3 1.7-.7-.4-.1-.8-2.9-.9-3.2-.6-2.7-1.1-5.4-1.7-8.1-1.6-8-3.1-16-4.5-24.1-1.3-7.4-2.7-14.7-4-22.1-.3-1.9-.6-3.9-1-5.8-.9-4.2-2.1-8-2.5-12.4-.6-7.8.9-16.5 6.3-21.3 1.4-1.2 3-1.8 4.6-2.4 2.6-1 5.4-2.4 8.2-2.6-.2-2.5-.2-4.9-.2-7.4 0-.6.5-3.4.3-3.9-.2-.4-1.5-1-1.9-1.4-.6-.6-1.1-1.3-1.6-2-.7-1.2-.6-2-1.9-1.6l-5 1.5-5.4 1.5c-1.6.4-3.5 1.3-5.2 1-4.6-.8-3.4-7.8-3.3-11.8.3-7.9.4-16.6 3.7-23.6 1.6-3.5 4-6.2 6.4-8.8 3-3.1 6-6.1 9.4-8.5 8-5.8 16.9-7.4 25.7-10.1C71 46.7 83.6 43 96.1 39.2c31.1-9.3 62.1-18.6 93.2-27.8l11.3-3.3c1.4-.4 2.8-.8 4.2-1.1 1.7-.3 3.5-.4 5.2 0 1.8.4 3.4 1.3 5.3 1.6 3.5.6 7.2.2 10.6 1.6 3.5 1.5 6.2 5.4 8.4 8.8 1.3 1.9 2.5 4 3.6 6 .1.2.4.9.6 1.1.6.5.5.4 1.2 0 1.2-.6 2.4-1 3.5-1.6 3.1-1.5 5.7-4.5 8.9-6.1 3.3-1.7 6.8-2.5 10.4-2.3 4 .3 7.8 2 11.5 3.7 3.5 1.5 6.9 3.1 10.3 4.8 3.5 1.7 7.1 3.4 9.8 6.8.5.7 1.1 1.9 1.7 2.3.5.3 1.3.3 1.9.5 1.5.5 3 1.3 4.4 2.1 2.5 1.4 4.9 2.9 7.4 4.2 6.4 3.5 12.9 6.7 19.3 10 7.5 3.8 15 7.6 22.4 11.4 4.9 2.5 10.1 4.8 14.6 8.4 5.8 4.6 10.4 12 14.5 18.7 2.3 3.8 4.5 7.7 6.8 11.4 2 3.3 3.6 6.6 4.6 10.6 1.2 4.6 1.6 9.4 2.1 14.1.6 4.9 1.3 9.9 1 14.9-.2 3.3-1.2 5.9-3.6 7.3-1.7 1-3.5 1.8-5.3 2.7-4.1 2-8.2 4.1-12.3 5.9l-.6.3c-.3.1-.9.2-1.1.4-1 .8-.2-.2-.5.8-.2.9-.1 1.9-.3 2.8-.5 2.3-1.1 4.6-1.6 6.9-.4 1.8-1.3 4-1.4 5.8-.1 1.3.7 3.7 1 5 .4 1.3 1.4 2 2.2 3 4.8 5.7 7.3 14.2 8 22.2.9 9 .4 18.9-2.1 27.5-2.7 9.3-8.2 17-14.3 23.2-.7.7-1.4 1.3-2.1 2-.5.5-1.9 1.3-2.2 2-.1.3-.1.9-.1 1.2-.2 2.2-.5 4.5-.7 6.7l-.9 8.1c-.2 1.5-.6 3.4-.6 4.9.1 1.3.5 2.6.5 4 0 2-.1 4-.6 5.9-.8 3.2-2.8 5.7-4.2 8.5-1.1 2.2-2.5 4.7-2.6 7.3-.2 3.9.1 7.2-1.8 10.5-2.1 3.6-5.5 5.8-8.4 8.2-3.3 2.7-6.6 5.6-10 8-.8.6-2.6 1.2-3 2.1-.3.6-.1 2.2-.1 2.9-.1 2.2-.1 4.4-.3 6.5-.2 1.7-.7 3-1.8 4-.8.8-.9.6-1 1.7-.2 2.2.1 4.5-.4 6.6-2 8-9.4 12.3-15.6 13.2-7 .9-15.4-.7-20.5-7.1-.7 1.5-1.8 2.6-3 3.5-1.4 1-1.9 1-2 3-.2 2.7-.2 4.3-2 6.2-.5.5-1 1.1-1.6 1.6-1.1 1-2.5 1.2-3.8 1.9-1.4.8-3 1.3-4.6 1.2-1.5-.2-2.6-1.2-4.1-1.1-2.3.1-4.3-.3-6.4.8-1.9 1-3.7 1.9-5.6 2.9-4.4 2.2-8.8 4.4-13.2 6.7-3.7 1.9-7.5 3.8-11.2 5.6-1.7.9-3.4 1.8-5.2 2.3-2.6.8-5.3.4-7.9-.2-8.2-1.9-16.4-5.3-24.3-8.4-1.4-.5-2.2 0-3.6.6-1.7.8-3.4 1.5-5.1 2.3-3.5 1.6-6.9 3.1-10.4 4.7-3.2 1.5-6.5 3-9.7 4.4-2.5 1.3-5.3 2.7-8.1 2.7zM35.5 241.1l-12.2-5.8m14.8-1.6l4.4 22.5m-11-56.3l2.6 13.5m9 45.9l.6 3.4m.8 3.7l2.8 15.4" stroke-linecap="round" stroke-linejoin="round"/><path fill="none" stroke="#FFF" stroke-miterlimit="10" d="M132.9 152.3c0 3.2-8.2 3.2-9.7 3.2s-9.6.1-9.7-3.2c0-3.2 8.2-3.2 9.7-3.2 1.5.1 9.7 0 9.7 3.2zm-17.5-23.2c.2 1.6-.1 4.1-1.6 4.4-1.5.4-2.6-1.8-2.9-3.4-.2-1.5.1-3.8 1.5-4.3 1.6-.6 2.8 1.6 3 3.3zm35.3-31.2l24.7 43.1M53.5 61.4L66.2 66m17.5-4.3l94.8-30.9m-11.7 64.3l130.6-48.8M169.1 98.1l94.2-34.4m5.3-2.3l6.9-2.5M198 120.8L328.6 72m-128.3 51.8l94.2-34.4m4.1-1.5L330 76.4m-157 33.5l112.6-42.1m-110.2 45.1l80.8-29.5m6-2.2l33.5-12.3" stroke-linecap="round" stroke-linejoin="round"/></svg>